{"glyphs":{"0":{"ha":611,"x_min":142,"x_max":691,"o":"m 477 812 q 632 741 573 812 q 691 528 691 670 q 590 154 691 328 q 344 -20 488 -20 q 201 54 260 -20 q 142 256 142 128 q 200 550 142 407 q 332 753 258 693 q 477 812 406 812 m 465 772 q 379 717 422 772 q 299 512 336 662 q 261 228 261 363 q 293 70 261 120 q 365 20 324 20 q 436 56 401 20 q 530 258 488 109 q 572 556 572 408 q 537 730 572 672 q 465 772 511 772 z "},"1":{"ha":611,"x_min":143,"x_max":602,"o":"m 581 820 l 602 820 l 509 454 l 431 114 q 419 56 419 70 q 430 38 419 45 q 483 26 441 31 q 513 24 499 26 q 543 18 514 24 l 529 -16 q 326 0 380 0 q 238 -3 280 0 q 143 -16 197 -7 l 155 18 l 235 37 q 296 64 280 45 q 343 178 319 88 l 416 458 q 452 640 452 620 q 433 663 452 663 q 296 609 417 663 l 283 643 q 499 755 462 728 q 581 820 537 782 z "},"2":{"ha":611,"x_min":102,"x_max":665,"o":"m 273 609 l 239 626 q 349 773 292 732 q 478 814 407 814 q 615 760 564 814 q 665 633 665 706 q 647 543 665 589 q 587 446 628 496 q 437 309 562 415 q 207 79 275 167 q 296 81 235 79 q 390 83 357 83 l 443 82 q 482 83 465 82 q 511 92 499 84 q 571 169 528 102 l 618 169 q 522 -18 562 93 q 473 -10 496 -14 q 420 -4 468 -9 q 380 -3 394 -4 q 308 0 311 0 q 196 -5 294 0 q 102 -9 134 -9 l 116 34 q 300 240 177 125 q 457 400 422 355 q 531 524 507 465 q 549 608 549 568 q 516 706 549 670 q 433 743 483 743 q 354 714 393 743 q 273 609 315 685 z "},"3":{"ha":611,"x_min":100,"x_max":617,"o":"m 289 654 l 261 673 q 363 773 330 752 q 483 811 422 811 q 581 779 545 811 q 617 697 617 747 q 457 473 617 591 q 541 453 510 473 q 587 401 568 437 q 605 318 605 366 q 473 75 605 189 q 240 -22 359 -22 q 144 3 188 -22 q 100 63 100 27 q 112 89 100 77 q 138 100 123 100 q 184 75 159 100 q 236 34 218 43 q 278 22 260 22 q 396 85 332 22 q 492 286 492 176 q 462 373 492 340 q 385 406 432 406 q 306 391 349 406 l 311 433 q 467 541 396 463 q 515 650 515 595 q 494 716 515 692 q 436 740 473 740 q 289 654 359 740 z "},"4":{"ha":611,"x_min":104,"x_max":663,"o":"m 632 277 l 618 205 l 513 205 l 464 -20 l 368 -20 l 417 205 q 247 205 308 205 q 136 203 186 204 l 123 203 q 104 217 104 203 q 120 250 104 222 q 341 536 198 382 q 489 684 414 614 q 644 817 564 753 l 663 817 l 634 707 l 574 470 l 529 277 l 632 277 m 432 277 q 459 395 439 315 l 525 660 q 331 465 395 536 q 186 277 271 396 l 432 277 z "},"5":{"ha":611,"x_min":90,"x_max":728,"o":"m 691 831 l 728 831 l 680 730 q 659 714 674 720 q 595 709 644 709 q 399 701 448 709 l 381 652 q 375 623 375 633 q 415 580 375 597 q 516 523 487 550 q 564 452 546 495 q 582 353 582 408 q 468 96 582 209 q 214 -18 353 -18 q 115 3 149 -18 q 90 46 90 19 q 101 75 90 64 q 127 87 111 87 l 142 85 l 169 68 q 214 44 197 50 q 256 39 232 39 q 424 117 350 39 q 498 292 498 196 q 462 408 498 356 q 357 488 425 460 q 319 511 328 500 q 309 541 309 523 q 332 630 309 559 l 378 774 q 448 790 404 786 l 593 793 q 633 795 616 793 q 659 802 650 798 q 691 831 674 810 z "},"6":{"ha":611,"x_min":168,"x_max":741,"o":"m 741 814 l 733 773 q 631 763 677 773 q 542 731 585 752 q 409 628 463 694 q 319 448 354 561 q 395 494 355 477 q 434 505 414 501 q 473 509 454 509 q 598 455 551 509 q 646 299 646 400 q 564 64 646 159 q 382 -18 492 -18 q 228 53 289 -18 q 183 138 198 89 q 168 251 168 186 q 246 536 168 402 q 451 742 323 670 q 741 814 578 814 m 306 395 q 288 220 288 289 q 320 66 288 114 q 401 19 353 19 q 486 70 454 19 q 527 263 527 136 q 498 412 527 368 q 429 456 470 456 q 372 441 402 456 q 306 395 341 426 z "},"7":{"ha":611,"x_min":202,"x_max":764,"o":"m 291 625 l 256 625 l 273 677 q 294 746 286 718 q 309 804 302 775 q 546 793 383 793 q 673 794 585 793 q 764 795 761 795 q 580 558 652 653 q 479 421 511 468 q 344 190 381 274 q 318 80 328 151 q 294 -11 309 9 q 254 -31 279 -31 q 218 -13 233 -31 q 202 31 202 5 q 250 180 202 94 q 557 599 315 302 l 645 708 l 390 708 q 330 696 345 708 q 291 625 315 685 z "},"8":{"ha":611,"x_min":134,"x_max":701,"o":"m 503 455 q 618 238 618 340 q 535 61 618 141 q 332 -18 452 -18 q 184 35 235 -18 q 134 151 134 88 q 154 237 134 194 q 220 322 175 281 q 379 431 254 354 q 307 599 307 513 q 374 750 307 686 q 538 813 441 813 q 655 774 610 813 q 701 681 701 734 q 659 576 701 628 q 503 455 606 509 m 472 491 q 595 596 566 556 q 625 671 625 637 q 595 739 625 710 q 522 768 566 768 q 433 732 471 768 q 396 644 396 695 q 472 491 396 572 m 408 400 q 263 269 301 325 q 226 155 226 214 q 265 61 226 100 q 360 22 304 22 q 439 45 400 22 q 502 109 479 67 q 526 193 526 151 q 503 277 526 233 q 408 400 481 321 z "},"9":{"ha":611,"x_min":100,"x_max":673,"o":"m 100 -18 l 108 22 q 210 33 163 22 q 299 64 256 43 q 432 169 377 101 q 522 349 488 236 q 446 302 486 318 q 408 290 428 294 q 368 286 388 286 q 243 341 290 286 q 195 497 195 396 q 277 731 195 636 q 459 814 349 814 q 612 742 552 814 q 673 545 673 671 q 595 260 673 395 q 389 53 518 126 q 100 -18 264 -18 m 535 401 q 553 575 553 507 q 521 730 553 683 q 439 777 488 777 q 355 726 387 777 q 314 532 314 659 q 343 384 314 428 q 412 340 372 340 q 470 356 439 340 q 535 401 500 371 z "}," ":{"ha":305,"x_min":0,"x_max":0,"o":""},"!":{"ha":389,"x_min":183,"x_max":441,"o":"m 294 224 l 254 224 q 296 523 275 372 q 317 766 317 673 q 323 790 317 784 q 362 807 333 799 q 427 819 409 819 q 441 805 441 819 q 440 793 441 797 q 436 780 439 789 l 376 559 l 294 224 m 257 146 q 301 126 283 146 q 319 76 319 106 q 298 7 319 32 q 245 -18 277 -18 q 201 0 219 -18 q 183 48 183 19 q 208 123 183 91 q 257 146 227 146 z "},"\"":{"ha":306,"x_min":205,"x_max":526,"o":"m 383 463 l 436 724 q 462 795 446 779 q 497 812 476 812 q 518 805 511 812 q 526 784 526 798 q 512 735 526 774 l 420 470 q 398 446 412 446 q 383 463 380 446 m 208 463 l 260 724 q 286 795 271 779 q 321 812 300 812 q 342 805 335 812 q 350 784 350 798 q 336 735 350 774 l 244 470 q 222 446 236 446 q 208 463 205 446 z "},"#":{"ha":945,"x_min":234,"x_max":979,"o":"m 323 18 l 399 256 l 234 256 l 258 330 l 424 330 l 477 496 l 311 496 l 336 570 l 501 570 l 574 798 l 652 798 l 580 570 l 734 570 l 807 798 l 886 798 l 812 570 l 979 570 l 954 496 l 789 496 l 736 330 l 901 330 l 877 256 l 711 256 l 635 18 l 556 18 l 633 256 l 478 256 l 401 18 l 323 18 m 503 330 l 657 330 l 710 496 l 555 496 l 503 330 z "},"$":{"ha":611,"x_min":118,"x_max":677,"o":"m 521 903 l 564 903 l 541 808 l 556 808 q 643 783 608 808 q 677 731 677 759 q 665 702 677 715 q 635 688 652 688 q 612 693 622 688 q 581 719 606 695 q 527 747 559 739 l 453 458 q 545 353 519 400 q 570 260 570 306 q 505 91 570 168 q 335 -9 439 13 l 290 -182 l 247 -182 l 290 -17 l 258 -18 q 148 0 178 -18 q 118 48 118 19 q 131 80 118 66 q 160 94 143 94 q 180 89 168 94 q 214 72 191 85 q 258 52 243 56 q 304 45 273 47 l 387 372 q 303 468 325 428 q 282 557 282 508 q 342 712 282 643 q 496 801 402 781 l 521 903 m 484 751 q 390 699 423 739 q 357 608 357 659 q 417 492 357 557 l 484 751 m 349 47 q 459 105 418 60 q 500 205 500 150 q 488 261 500 237 q 466 292 481 273 q 424 340 451 311 l 349 47 z "},"%":{"ha":945,"x_min":224,"x_max":945,"o":"m 332 -5 q 385 85 355 35 q 431 166 400 112 l 679 618 l 781 812 l 836 803 q 718 601 772 699 l 500 204 q 443 97 473 156 q 389 -10 417 47 l 354 -6 l 332 -5 m 437 812 q 529 773 494 812 q 565 663 565 734 q 492 453 565 546 q 353 378 433 378 q 261 418 298 378 q 224 524 224 458 q 285 721 224 630 q 437 812 346 812 m 428 784 q 349 699 386 784 q 311 511 311 614 q 328 433 311 458 q 365 408 345 408 q 433 473 402 408 q 478 680 478 569 q 460 762 478 733 q 428 784 447 784 m 818 424 q 910 385 874 424 q 945 275 945 345 q 872 64 945 157 q 733 -10 813 -10 q 642 30 678 -10 q 605 135 605 69 q 666 333 605 241 q 818 424 726 424 m 808 395 q 729 310 766 395 q 692 122 692 225 q 708 44 692 70 q 745 19 725 19 q 814 85 783 19 q 859 291 859 180 q 841 374 859 345 q 808 395 827 395 z "},"&":{"ha":1083,"x_min":158,"x_max":1212,"o":"m 1023 772 q 991 695 1004 731 q 951 543 979 659 q 873 279 905 349 q 744 105 830 186 q 878 -15 828 13 q 974 -43 927 -43 q 1064 -14 1027 -43 q 1100 50 1100 15 q 1092 85 1100 62 q 1083 119 1083 109 q 1095 150 1083 138 q 1124 162 1106 162 q 1154 148 1141 162 q 1167 109 1167 134 q 1101 -33 1167 29 q 947 -94 1036 -94 q 870 -80 909 -94 q 795 -37 831 -65 q 700 66 772 -18 q 469 -20 592 -20 q 247 66 336 -20 q 158 278 158 152 q 243 486 158 399 q 447 572 329 572 q 544 547 511 572 q 577 488 577 522 q 436 377 577 410 q 549 311 496 355 q 713 143 618 256 q 761 210 740 176 q 798 294 779 241 q 814 344 804 309 q 837 431 824 378 q 871 559 861 526 q 916 671 892 620 q 970 772 939 723 q 799 749 849 772 q 728 657 728 717 q 730 633 728 648 q 738 594 732 619 l 741 566 q 730 539 741 550 q 704 528 720 528 q 672 545 686 528 q 659 591 659 562 q 699 714 659 654 q 803 802 738 774 q 986 831 867 831 l 1021 830 l 1087 827 q 1127 838 1114 827 q 1141 867 1141 849 l 1137 891 l 1133 914 q 1143 943 1133 932 q 1171 955 1154 955 q 1200 941 1186 955 q 1212 902 1212 926 q 1164 814 1212 853 q 1104 783 1140 795 q 1023 772 1068 772 m 319 404 q 401 408 372 404 q 449 422 431 412 q 484 474 484 441 q 467 513 484 498 q 421 528 450 528 q 299 470 354 528 q 244 333 244 411 q 284 209 244 273 q 392 105 325 144 q 531 66 460 66 q 671 106 600 66 q 538 262 559 243 q 449 331 500 298 q 393 361 425 346 q 319 393 361 377 l 319 404 z "},"'":{"ha":222,"x_min":251,"x_max":396,"o":"m 254 463 l 306 724 q 332 795 317 779 q 368 812 346 812 q 389 805 381 812 q 396 784 396 798 q 382 735 396 774 l 290 470 q 269 446 282 446 q 254 463 251 446 z "},"(":{"ha":361,"x_min":126,"x_max":659,"o":"m 659 942 q 634 921 659 932 q 498 811 593 903 q 339 605 404 719 q 234 347 274 491 q 193 68 193 202 q 204 -82 193 -15 q 236 -202 215 -149 q 288 -322 270 -292 q 295 -339 294 -332 q 283 -353 295 -353 q 262 -336 276 -353 q 166 -135 207 -265 q 126 120 126 -5 q 184 433 126 286 q 334 705 242 579 q 561 916 427 831 q 644 957 625 957 q 659 942 659 957 z "},")":{"ha":306,"x_min":-98,"x_max":434,"o":"m -98 -338 q -74 -317 -98 -328 q 62 -206 -34 -300 q 222 0 155 -116 q 327 257 286 113 q 367 536 367 402 q 356 686 367 619 q 324 806 345 753 q 272 926 290 896 q 265 943 267 937 q 277 958 265 958 q 298 941 284 958 q 394 740 353 869 q 434 484 434 610 q 377 172 434 316 q 225 -101 319 27 q -1 -312 134 -226 q -84 -353 -66 -353 q -98 -338 -98 -353 z "},"*":{"ha":583,"x_min":190,"x_max":669,"o":"m 446 958 q 490 795 460 876 l 526 791 q 580 794 547 791 q 658 803 613 797 l 669 770 q 525 674 590 727 q 551 602 536 638 q 589 523 566 565 l 562 503 q 428 606 498 556 q 365 563 398 589 q 295 503 331 536 q 264 526 279 513 q 302 604 286 566 q 331 674 317 637 q 190 770 260 728 q 195 786 192 778 q 201 803 197 795 q 325 793 286 793 l 368 795 q 408 958 397 882 l 427 958 l 446 958 m 430 781 q 380 761 401 781 q 359 711 359 740 q 380 661 359 683 q 430 640 401 640 q 480 661 459 640 q 501 711 501 682 q 480 760 501 739 q 430 781 459 781 z "},"+":{"ha":722,"x_min":186,"x_max":786,"o":"m 448 436 l 448 697 l 524 697 l 524 436 l 786 436 l 786 361 l 524 361 l 524 96 l 448 96 l 448 361 l 186 361 l 186 436 l 448 436 z "},",":{"ha":306,"x_min":25,"x_max":239,"o":"m 38 -211 l 25 -167 q 120 -73 85 -121 q 142 -23 142 -42 q 125 26 142 -5 q 109 79 109 58 q 128 123 109 104 q 171 142 146 142 q 218 120 198 142 q 239 65 239 97 q 218 -17 239 29 q 157 -109 198 -64 q 38 -211 101 -170 z "},"-":{"ha":389,"x_min":114,"x_max":446,"o":"m 132 312 l 446 312 l 429 245 l 114 245 l 132 312 z "},".":{"ha":306,"x_min":101,"x_max":237,"o":"m 175 146 q 219 126 201 146 q 237 76 237 106 q 216 7 237 32 q 163 -18 195 -18 q 119 0 137 -18 q 101 48 101 19 q 126 123 101 91 q 175 146 144 146 z "},"/":{"ha":472,"x_min":-16,"x_max":727,"o":"m -16 -260 l 656 939 l 727 939 l 55 -260 l -16 -260 z "},":":{"ha":361,"x_min":101,"x_max":334,"o":"m 272 564 q 316 545 298 564 q 334 494 334 525 q 314 425 334 450 q 260 400 293 400 q 216 419 234 400 q 198 467 198 437 q 223 541 198 509 q 272 564 241 564 m 175 146 q 219 126 201 146 q 237 76 237 106 q 216 7 237 32 q 163 -18 195 -18 q 119 0 137 -18 q 101 48 101 19 q 126 123 101 91 q 175 146 144 146 z "},";":{"ha":333,"x_min":24,"x_max":342,"o":"m 280 564 q 324 545 305 564 q 342 494 342 525 q 322 425 342 450 q 269 400 301 400 q 224 419 242 400 q 206 467 206 437 q 231 541 206 509 q 280 564 250 564 m 37 -211 l 24 -167 q 119 -73 83 -121 q 140 -23 140 -42 q 124 26 140 -5 q 108 79 108 58 q 126 123 108 104 q 170 142 145 142 q 217 120 197 142 q 237 65 237 97 q 217 -17 237 29 q 155 -109 197 -64 q 37 -211 100 -170 z "},"<":{"ha":722,"x_min":151,"x_max":756,"o":"m 756 157 l 756 83 l 151 361 l 151 426 l 756 703 l 756 631 l 247 393 l 756 157 z "},"=":{"ha":722,"x_min":186,"x_max":786,"o":"m 786 553 l 786 476 l 186 476 l 186 553 l 786 553 m 786 321 l 786 244 l 186 244 l 186 321 l 786 321 z "},">":{"ha":722,"x_min":224,"x_max":830,"o":"m 224 157 l 734 393 l 224 631 l 224 703 l 830 426 l 830 361 l 224 83 l 224 157 z "},"?":{"ha":528,"x_min":121,"x_max":567,"o":"m 231 223 l 187 223 q 201 333 193 292 q 219 398 208 375 q 277 436 231 420 q 461 532 413 481 q 509 643 509 583 q 484 721 509 692 q 420 749 458 749 q 338 711 387 749 l 311 693 q 292 690 305 691 q 262 702 277 690 q 250 732 250 714 q 285 787 250 761 q 324 806 302 800 q 372 813 346 813 q 510 753 454 813 q 567 602 567 694 q 503 437 567 509 q 351 350 462 391 q 254 303 268 319 q 231 223 242 290 m 195 146 q 239 126 221 146 q 258 76 258 106 q 237 7 258 32 q 184 -18 216 -18 q 139 0 157 -18 q 121 48 121 19 q 146 123 121 91 q 195 146 165 146 z "},"@":{"ha":972,"x_min":176,"x_max":1009,"o":"m 767 685 l 806 694 q 750 489 779 601 q 709 301 725 387 l 704 267 q 710 246 704 253 q 727 237 715 239 q 794 272 752 237 q 885 390 852 320 q 918 528 918 459 q 849 702 918 633 q 671 771 781 771 q 475 714 565 771 q 325 539 386 656 q 263 300 263 421 q 300 148 263 221 q 388 58 327 93 q 519 23 448 23 q 842 159 671 23 l 865 132 q 490 -22 691 -22 q 259 59 342 -22 q 176 279 176 140 q 247 545 176 419 q 440 745 318 671 q 687 819 563 819 q 853 781 777 819 q 969 683 928 743 q 1009 559 1009 623 q 993 461 1009 510 q 943 362 977 412 q 766 208 876 264 q 643 167 688 167 q 619 175 628 167 q 610 198 610 183 q 637 299 610 216 q 526 199 577 233 q 433 166 474 166 q 384 196 407 166 q 362 275 362 227 q 419 462 362 361 q 552 613 476 563 q 715 664 628 664 l 755 662 l 767 685 m 697 596 q 650 602 669 602 q 557 572 600 602 q 481 468 513 542 q 449 317 449 393 q 463 263 449 281 q 500 246 476 246 q 547 260 525 246 q 605 311 580 278 q 639 372 629 344 l 662 463 l 697 596 z "},"A":{"ha":861,"x_min":-71,"x_max":881,"o":"m 881 30 l 874 -9 l 831 -11 q 768 -7 806 -11 l 687 0 q 600 -9 656 0 q 635 102 619 43 q 656 245 644 138 q 538 243 626 245 q 410 241 450 241 q 158 -89 239 -21 q 5 -157 77 -157 q -52 -142 -33 -157 q -71 -104 -71 -127 q -60 -75 -71 -87 q -33 -64 -50 -64 q -22 -64 -28 -64 q -7 -67 -16 -65 q 47 -77 35 -77 q 148 -25 92 -77 q 259 105 192 16 q 412 328 326 193 q 733 770 611 632 q 524 741 567 755 q 438 687 467 723 q 410 614 410 651 q 419 577 410 601 q 429 543 429 554 q 417 516 429 528 q 389 505 406 505 q 352 522 367 505 q 338 574 338 539 q 363 668 338 623 q 436 744 389 713 q 555 792 483 774 q 684 808 587 799 q 737 811 711 808 q 785 821 764 814 q 846 855 817 829 q 817 709 826 774 l 764 317 l 733 37 q 823 24 786 24 q 881 30 849 24 m 663 295 q 728 697 695 568 l 621 553 l 447 295 q 532 294 492 295 q 608 293 572 294 l 663 295 z "},"B":{"ha":833,"x_min":93,"x_max":878,"o":"m 435 650 l 444 683 q 524 690 481 683 q 610 710 551 695 q 576 597 587 640 l 539 446 q 720 506 659 446 q 781 649 781 566 q 737 742 781 706 q 606 777 693 777 q 372 719 483 777 q 199 566 262 661 q 137 378 137 471 q 144 331 137 353 q 165 290 151 309 q 202 260 172 281 q 239 228 231 239 q 247 203 247 217 q 236 179 247 189 q 211 168 226 168 q 133 225 172 168 q 93 363 93 281 q 161 584 93 477 q 354 755 229 690 q 629 820 479 820 q 814 772 751 820 q 878 654 878 724 q 835 536 878 589 q 705 452 793 482 q 799 420 764 443 q 853 361 834 397 q 871 283 871 326 q 828 144 871 210 q 702 36 785 79 q 527 -7 618 -7 q 467 -4 497 -5 q 414 -2 436 -2 l 327 0 q 204 -11 256 0 l 214 26 q 274 35 250 26 q 315 60 298 43 q 372 194 346 91 l 473 588 q 479 626 479 612 q 470 644 479 635 q 449 652 462 652 l 435 650 m 528 406 l 494 269 q 443 106 467 163 q 406 49 429 73 q 463 38 435 42 q 511 34 490 34 q 690 107 629 34 q 751 271 751 180 q 729 348 751 315 q 668 393 706 380 q 528 406 630 406 z "},"C":{"ha":722,"x_min":133,"x_max":852,"o":"m 808 518 l 772 518 l 775 603 q 735 736 775 699 q 635 774 696 774 q 468 708 555 774 q 319 504 382 643 q 256 219 256 365 q 314 2 256 77 q 460 -74 372 -74 q 677 68 578 -74 q 699 83 688 83 q 713 77 706 83 q 720 64 720 71 q 675 -7 720 45 q 561 -97 630 -60 q 426 -133 492 -133 q 277 -92 345 -133 q 171 28 210 -50 q 133 212 133 106 q 210 507 133 359 q 405 734 288 654 q 633 814 522 814 q 712 806 674 814 q 852 759 726 802 q 820 638 831 699 q 808 518 808 577 z "},"D":{"ha":972,"x_min":96,"x_max":1044,"o":"m 441 652 l 448 682 q 528 690 481 682 q 622 711 558 696 q 570 541 594 639 l 526 351 q 417 42 477 146 q 520 31 477 31 q 726 80 638 31 q 866 226 814 130 q 919 437 919 322 q 831 680 919 587 q 730 749 787 726 q 600 772 673 772 q 374 715 481 772 q 205 563 267 658 q 143 381 143 469 q 219 254 143 295 q 247 233 239 242 q 254 211 254 224 q 241 182 254 195 q 212 170 229 170 q 142 217 177 170 q 96 353 96 283 q 165 578 96 469 q 359 752 235 687 q 635 817 484 817 q 933 716 823 817 q 1044 465 1044 616 q 967 208 1044 325 q 780 39 890 90 q 671 3 727 16 q 562 -10 616 -10 q 508 -7 556 -10 q 439 -3 460 -3 q 368 -1 414 -3 q 300 2 322 2 l 208 0 l 223 33 q 272 36 252 33 q 300 44 292 39 q 327 69 316 52 q 380 205 346 99 l 427 382 l 481 603 q 486 631 486 619 q 479 648 486 641 q 460 654 472 654 l 441 652 z "},"E":{"ha":861,"x_min":92,"x_max":924,"o":"m 890 650 l 854 650 q 858 681 857 667 q 859 705 859 694 q 836 741 859 732 q 665 749 812 749 l 566 749 l 491 449 l 631 449 q 713 459 699 449 q 735 508 728 469 l 774 508 q 735 328 752 425 l 701 328 l 704 377 q 694 395 704 385 q 674 403 691 400 q 620 406 656 406 l 481 406 q 420 202 451 292 q 355 45 389 112 q 467 64 420 64 q 557 58 509 64 q 668 38 606 52 q 751 24 729 24 q 799 39 781 24 q 818 73 818 54 q 809 109 818 84 q 804 140 804 126 q 816 168 804 155 q 846 180 828 180 q 881 164 867 180 q 895 121 895 148 q 844 20 895 64 q 711 -24 793 -24 q 602 -16 663 -24 q 379 0 456 0 q 144 -16 280 0 l 155 21 q 249 53 234 43 q 273 85 263 63 q 358 344 305 147 q 463 753 410 541 q 310 714 382 753 q 196 614 237 675 q 155 483 155 552 q 156 461 155 473 q 161 430 156 449 q 187 371 167 411 q 200 332 200 347 q 187 306 200 318 q 157 294 174 294 q 115 321 131 294 q 92 426 92 361 q 199 681 92 568 q 513 795 307 795 l 746 795 q 924 810 868 795 q 890 650 897 697 z "},"F":{"ha":805,"x_min":155,"x_max":966,"o":"m 924 632 l 888 632 q 899 705 899 691 q 883 739 899 728 q 825 749 867 749 l 781 749 l 767 749 l 631 749 l 610 670 q 554 454 575 545 l 686 454 q 748 464 734 454 q 772 512 762 473 l 809 512 q 772 334 788 425 l 735 334 l 740 379 q 724 404 740 395 q 706 408 718 406 q 672 410 693 410 l 543 410 q 521 314 533 363 q 491 206 509 264 q 436 37 460 98 q 533 28 494 28 q 588 33 562 28 l 576 -5 l 540 -8 l 446 -3 l 367 0 q 227 -12 302 0 l 235 25 q 314 52 295 37 q 344 87 332 66 q 422 343 363 125 l 526 749 q 443 740 481 749 q 367 709 404 730 q 259 607 300 671 q 218 477 218 543 q 220 451 218 463 q 225 422 221 439 q 244 378 229 406 q 264 328 264 342 q 252 303 264 313 q 222 292 241 292 q 178 321 197 292 q 155 429 155 359 q 261 679 155 565 q 543 793 368 793 l 803 793 q 853 794 838 793 q 899 799 867 795 q 966 813 910 799 q 924 632 932 677 z "},"G":{"ha":861,"x_min":176,"x_max":940,"o":"m 903 540 l 866 540 l 869 596 q 822 729 869 687 q 706 772 774 772 q 515 707 611 772 q 357 527 419 643 q 295 284 295 410 q 356 96 295 156 q 492 35 417 35 q 535 38 513 35 q 577 47 557 41 q 656 82 618 59 q 679 170 671 133 q 687 224 687 206 q 674 250 687 240 q 630 260 662 260 q 612 260 625 260 q 578 257 599 259 l 584 290 q 613 294 600 293 q 644 296 627 296 l 705 294 l 746 294 q 767 294 759 294 q 821 298 809 298 l 866 300 l 859 266 q 811 252 825 266 q 781 172 797 237 q 671 -163 726 -59 q 547 -312 616 -267 q 398 -357 477 -357 q 289 -326 330 -357 q 247 -261 247 -294 q 260 -230 247 -243 q 290 -217 274 -217 q 343 -252 312 -217 q 394 -297 375 -286 q 434 -308 414 -308 q 509 -275 477 -308 q 640 30 575 -210 q 549 -7 595 5 q 503 -16 526 -13 q 455 -20 479 -20 q 267 43 336 -20 q 176 278 176 127 q 244 534 176 414 q 438 733 313 654 q 673 812 564 812 q 817 793 734 812 q 940 774 899 774 q 903 540 903 644 z "},"H":{"ha":945,"x_min":29,"x_max":1232,"o":"m 936 31 l 927 -8 q 874 -12 892 -12 q 797 -7 842 -12 q 745 -5 776 -7 q 709 -3 714 -3 q 648 -12 679 -3 q 711 205 676 66 l 764 408 l 581 401 q 536 400 557 401 q 481 394 516 398 q 387 126 435 212 q 275 -1 338 41 q 155 -43 212 -43 q 58 -16 98 -43 q 29 32 29 3 q 41 61 29 49 q 68 73 52 73 q 123 35 94 73 q 150 6 139 13 q 174 0 160 0 q 273 86 226 0 q 409 508 320 172 l 475 756 q 272 711 340 756 q 203 610 203 666 q 222 562 203 593 q 238 518 238 536 q 225 486 238 498 q 194 473 213 473 q 154 496 171 473 q 136 562 136 519 q 193 701 136 640 q 359 787 250 762 q 608 801 421 801 q 496 451 558 703 q 778 464 677 451 q 881 737 836 659 q 982 850 926 815 q 1107 885 1038 885 q 1199 862 1167 885 q 1232 810 1232 840 q 1220 783 1232 794 q 1207 774 1214 777 q 1190 772 1200 772 q 1136 806 1166 772 q 1082 840 1106 840 q 982 745 1031 840 q 778 35 895 578 l 810 31 q 873 24 853 24 q 936 31 902 24 z "},"I":{"ha":528,"x_min":94,"x_max":658,"o":"m 658 802 l 646 766 q 584 761 609 766 q 544 747 559 755 q 517 718 529 738 q 442 459 505 693 l 338 37 q 391 26 359 30 q 458 23 423 23 l 448 -9 q 401 -7 426 -9 q 361 -4 377 -5 q 252 0 314 0 q 94 -13 165 0 l 102 23 q 215 53 177 35 q 230 64 224 57 q 252 114 239 75 q 333 416 264 153 l 416 751 q 362 748 389 751 q 301 738 334 745 l 314 775 q 364 785 343 783 q 405 788 385 787 q 507 791 453 791 q 591 794 558 791 q 658 802 625 797 z "},"J":{"ha":555,"x_min":1,"x_max":681,"o":"m 681 800 q 576 494 633 694 l 475 141 q 340 -107 427 -28 q 151 -186 254 -186 q 43 -156 85 -186 q 1 -89 1 -125 q 13 -59 1 -73 q 41 -46 26 -46 q 90 -74 63 -46 q 146 -121 126 -111 q 198 -136 175 -136 q 240 -125 222 -136 q 291 -70 269 -107 q 380 181 313 -33 q 418 300 393 221 q 454 423 429 339 q 491 550 477 501 l 550 756 l 517 758 q 339 706 410 758 q 269 596 269 654 q 286 550 269 575 q 302 511 302 525 q 289 480 302 493 q 258 467 276 467 q 218 488 235 467 q 203 549 203 509 q 257 688 203 625 q 403 781 311 751 q 588 801 465 801 l 681 800 z "},"K":{"ha":917,"x_min":121,"x_max":1111,"o":"m 1052 800 l 1048 783 q 957 750 992 770 q 860 675 922 730 q 578 458 696 532 q 636 364 612 415 q 722 119 660 313 q 832 -111 776 -52 q 947 -171 888 -171 q 1023 -111 1002 -171 q 1044 -68 1036 -77 q 1072 -57 1057 -57 q 1099 -68 1088 -57 q 1111 -95 1111 -79 q 1063 -174 1111 -136 q 941 -212 1015 -212 q 820 -179 878 -212 q 716 -78 762 -146 q 618 140 669 -9 q 547 329 572 278 q 477 437 522 380 l 405 163 q 378 43 384 82 q 460 24 425 24 l 486 25 l 477 -9 l 460 -9 q 396 -5 435 -9 l 325 0 q 146 -22 266 0 l 151 11 q 242 45 216 23 q 284 118 268 68 q 310 203 291 140 q 341 313 325 254 q 378 448 366 406 l 460 762 q 340 745 396 762 q 248 701 291 730 q 188 612 188 661 q 204 568 188 594 q 220 528 220 542 q 207 495 220 509 q 175 481 193 481 q 137 503 155 481 q 121 558 121 523 q 215 727 121 651 q 541 804 309 804 l 585 804 q 536 663 549 707 l 482 458 q 598 522 533 477 q 728 620 664 567 q 857 735 841 715 q 861 747 861 741 q 847 756 861 751 q 820 760 840 758 q 769 762 800 762 l 778 800 q 920 792 865 792 q 1052 800 977 792 z "},"L":{"ha":806,"x_min":66,"x_max":818,"o":"m 66 -12 l 75 25 q 170 56 146 38 q 213 119 194 73 q 266 305 233 164 q 346 574 310 493 q 483 757 401 697 q 648 817 564 817 q 738 790 701 817 q 774 733 774 763 q 763 705 774 717 q 736 694 753 694 q 686 721 717 694 q 636 758 655 748 q 622 763 633 759 q 602 766 611 766 q 563 755 582 766 q 507 700 536 741 q 444 575 477 659 q 390 392 425 524 q 313 123 339 191 q 267 44 294 76 q 421 66 365 66 q 486 62 458 66 q 543 52 513 58 q 594 39 548 50 q 686 24 661 24 q 730 40 712 24 q 748 76 748 56 q 739 112 748 89 q 732 131 735 120 q 730 146 730 141 q 741 175 730 165 q 769 186 751 186 q 804 168 789 186 q 818 119 818 150 q 769 17 818 60 q 637 -26 720 -26 q 530 -20 597 -26 q 243 0 307 0 q 149 -3 193 0 q 66 -12 105 -5 z "},"M":{"ha":1166,"x_min":87,"x_max":1230,"o":"m 640 -28 l 586 701 q 522 358 569 517 q 413 111 474 199 q 289 -12 353 23 q 165 -47 225 -47 q 107 -33 127 -47 q 87 5 87 -18 q 102 36 87 22 q 139 50 117 50 q 186 43 158 50 q 232 35 214 35 q 298 59 264 35 q 401 185 349 93 q 493 439 452 277 q 528 600 517 533 q 544 758 544 688 q 294 682 389 758 q 217 545 217 621 q 254 465 217 513 q 273 425 273 440 q 262 395 273 407 q 235 384 252 384 q 189 414 208 384 q 161 509 161 454 q 213 657 161 586 q 356 764 264 728 q 572 802 451 802 q 678 814 637 802 l 676 749 l 678 721 l 718 205 q 1038 675 881 490 q 1230 852 1148 806 q 1130 513 1185 728 l 1047 187 l 1029 108 l 1013 35 q 1107 23 1063 23 q 1181 31 1141 23 l 1172 -8 q 1118 -14 1137 -14 q 1042 -8 1091 -14 q 962 -3 993 -3 q 925 -5 943 -3 q 882 -16 908 -8 q 960 246 918 79 l 1013 454 q 1070 638 1045 588 q 903 412 1017 578 q 699 75 811 278 l 640 -28 z "},"N":{"ha":972,"x_min":60,"x_max":1258,"o":"m 621 817 l 640 737 q 692 544 668 622 q 824 171 717 466 l 865 336 q 917 546 905 510 q 989 729 954 669 q 1068 815 1025 789 q 1167 841 1112 841 q 1235 824 1211 841 q 1258 783 1258 808 q 1245 754 1258 767 q 1216 741 1232 741 q 1187 747 1203 741 l 1147 763 l 1120 766 q 1063 743 1088 766 q 971 546 1023 705 q 842 41 920 387 l 819 -60 q 715 181 743 109 q 631 422 677 280 l 557 657 q 535 550 550 617 q 493 382 519 483 q 434 161 444 191 q 368 20 404 69 q 290 -51 332 -28 q 196 -73 247 -73 q 92 -45 134 -73 q 60 9 60 -24 q 72 34 60 23 q 100 45 83 45 q 145 23 119 45 q 224 -17 189 -17 q 300 18 262 -17 q 408 239 355 70 q 469 470 439 342 q 528 758 498 597 q 436 744 502 758 q 325 706 370 731 q 255 641 279 681 q 231 558 231 602 q 237 514 231 538 q 243 498 239 506 q 255 477 248 490 q 271 439 271 452 q 259 412 271 424 q 229 400 247 400 q 185 427 205 400 q 167 509 167 453 q 212 663 167 600 q 335 760 258 726 q 524 799 383 779 q 621 817 578 806 z "},"O":{"ha":833,"x_min":142,"x_max":909,"o":"m 610 812 q 764 772 696 812 q 870 659 832 733 q 909 488 909 585 q 840 234 909 359 q 672 45 772 109 q 453 -18 573 -18 q 229 68 315 -18 q 142 297 142 155 q 211 559 142 433 q 379 748 279 685 q 610 812 479 812 m 560 763 q 416 716 482 763 q 308 571 350 670 q 265 342 265 473 q 331 113 265 194 q 495 31 396 31 q 634 79 569 31 q 741 231 699 127 q 784 469 784 334 q 719 685 784 606 q 560 763 654 763 z "},"P":{"ha":750,"x_min":101,"x_max":923,"o":"m 425 649 l 433 680 q 602 707 532 689 q 565 583 585 660 l 515 392 l 577 388 q 624 393 600 388 q 671 410 647 398 q 763 493 722 433 q 804 622 804 552 q 754 730 804 690 q 604 770 705 770 q 379 713 489 770 q 208 566 269 656 q 148 391 148 477 q 163 316 148 347 q 219 254 178 286 q 252 207 252 229 q 242 182 252 193 q 216 172 231 172 q 138 227 176 172 q 111 289 120 254 q 101 366 101 323 q 219 646 101 519 q 634 813 374 813 q 797 788 734 813 q 891 717 859 762 q 923 620 923 671 q 879 490 923 554 q 748 387 835 427 q 555 347 661 347 l 505 349 l 451 138 q 420 32 438 85 q 513 19 476 19 q 619 38 562 19 l 611 0 q 522 -14 558 -14 q 479 -13 499 -14 q 418 -7 459 -12 q 330 0 359 0 q 264 -3 295 0 q 195 -16 233 -7 l 203 20 q 300 54 274 32 q 359 176 336 84 l 462 583 q 467 606 465 594 q 469 623 469 617 q 460 642 469 633 q 439 650 451 650 l 425 649 z "},"Q":{"ha":833,"x_min":142,"x_max":1130,"o":"m 530 -12 q 602 -81 558 -38 q 643 -121 640 -118 q 774 -244 737 -216 q 867 -297 827 -282 q 937 -313 907 -313 q 985 -304 963 -313 q 1025 -280 1006 -296 q 1052 -237 1035 -271 q 1096 -204 1069 -204 q 1119 -214 1108 -204 q 1130 -239 1130 -224 q 1075 -310 1130 -275 q 900 -357 998 -357 q 793 -344 833 -357 q 685 -289 736 -326 q 548 -164 633 -252 q 446 -63 469 -83 q 398 -27 422 -43 q 336 0 387 -20 q 192 114 241 38 q 142 297 142 191 q 269 647 142 481 q 597 812 396 812 q 761 774 692 812 q 869 661 829 736 q 909 493 909 587 q 802 173 909 328 q 530 -12 694 18 m 560 763 q 416 716 482 763 q 308 571 350 670 q 265 342 265 473 q 331 113 265 194 q 495 31 396 31 q 634 79 569 31 q 741 231 699 127 q 784 469 784 334 q 719 685 784 606 q 560 763 654 763 z "},"R":{"ha":833,"x_min":132,"x_max":1133,"o":"m 500 388 l 409 28 l 461 23 q 535 33 490 23 l 528 0 q 458 -9 482 -9 q 380 -5 428 -9 l 304 0 q 247 -3 275 0 q 179 -16 218 -7 l 189 22 q 286 60 263 41 q 338 162 319 87 l 433 541 q 451 627 451 615 q 443 645 451 639 q 409 650 435 650 l 418 683 q 582 708 486 683 l 561 632 l 510 432 q 539 427 524 429 q 565 425 555 425 q 710 484 649 425 q 770 625 770 543 q 722 729 770 688 q 590 770 673 770 q 382 719 484 770 q 229 591 280 667 q 178 431 178 515 q 231 322 178 368 q 263 290 257 300 q 269 268 269 279 q 259 243 269 254 q 233 233 248 233 q 168 275 197 233 q 132 412 132 330 q 189 606 132 516 q 363 756 246 696 q 610 815 481 815 q 809 770 730 815 q 887 635 887 724 q 815 480 887 552 q 618 388 744 409 l 659 304 q 702 180 672 269 q 844 -107 770 -24 q 961 -168 898 -168 q 1044 -109 1026 -168 q 1066 -62 1055 -73 q 1094 -51 1077 -51 q 1121 -62 1110 -51 q 1133 -90 1133 -74 q 1086 -170 1133 -132 q 968 -208 1040 -208 q 842 -177 901 -208 q 726 -73 783 -145 q 627 102 669 0 q 565 289 607 152 l 534 388 l 517 389 l 500 388 z "},"S":{"ha":639,"x_min":26,"x_max":743,"o":"m 698 550 l 663 550 q 670 658 670 625 q 642 740 670 709 q 566 770 614 770 q 435 716 490 770 q 380 595 380 663 q 395 530 380 559 q 463 449 410 501 q 587 303 557 357 q 618 199 618 249 q 573 57 618 125 q 440 -56 528 -11 q 254 -100 352 -100 q 92 -50 158 -100 q 26 56 26 0 q 43 105 26 85 q 83 125 60 125 q 121 106 104 125 q 140 55 130 97 q 166 -9 150 13 q 209 -43 180 -28 q 269 -56 237 -56 q 438 9 366 -56 q 511 154 511 74 q 509 181 511 168 q 502 208 507 193 q 469 269 494 235 q 393 350 452 291 q 321 428 338 405 q 290 488 301 457 q 279 551 279 519 q 320 674 279 612 q 428 774 361 736 q 578 811 495 811 q 682 798 622 811 l 743 788 q 721 707 730 748 q 698 550 712 666 z "},"T":{"ha":694,"x_min":110,"x_max":1014,"o":"m 672 39 l 663 0 q 586 -10 616 -10 q 492 -4 558 -10 q 446 -2 475 -4 q 403 0 416 0 q 263 -12 336 0 l 273 25 q 372 54 341 31 q 410 105 394 68 q 483 370 425 141 l 570 729 l 574 746 l 514 747 q 315 721 388 747 q 204 642 241 694 q 168 530 168 591 q 175 492 168 509 q 204 453 180 479 q 228 406 228 427 q 214 375 228 388 q 182 362 200 362 q 136 389 154 362 q 110 491 110 429 q 161 651 110 573 q 301 772 212 729 q 519 815 391 815 q 598 811 551 815 q 714 798 644 807 q 852 785 809 785 q 912 800 894 785 q 930 838 930 814 l 928 857 l 926 873 q 938 904 926 892 q 967 916 950 916 q 1001 901 987 916 q 1014 861 1014 886 q 958 773 1014 811 q 775 735 903 735 q 728 737 761 735 q 677 739 696 739 l 634 574 l 575 339 l 539 196 l 502 33 q 542 28 524 30 q 577 27 560 27 q 672 39 624 27 z "},"U":{"ha":1027,"x_min":161,"x_max":1107,"o":"m 629 810 q 494 503 562 692 q 448 282 448 371 q 495 129 448 184 q 615 73 543 73 q 743 107 683 73 q 889 243 822 152 q 999 463 956 335 q 1042 702 1042 591 q 1009 848 1042 780 l 989 890 l 987 911 q 999 944 987 930 q 1030 957 1012 957 q 1080 923 1061 957 q 1107 780 1107 877 q 1016 366 1107 571 q 806 73 926 161 q 556 -15 687 -15 q 393 56 450 -15 q 336 231 336 127 q 362 406 336 316 q 415 551 379 463 q 505 756 450 639 q 423 752 456 756 q 353 735 389 747 q 256 677 287 713 q 235 643 242 661 q 227 608 227 625 q 243 569 227 593 q 259 526 259 541 q 247 493 259 507 q 216 480 234 480 q 177 500 195 480 q 161 553 161 521 q 191 657 161 605 q 270 742 222 710 q 390 789 319 774 q 463 800 422 796 q 536 803 503 803 q 592 805 568 803 q 629 810 616 808 z "},"V":{"ha":889,"x_min":142,"x_max":1112,"o":"m 436 -28 l 412 300 q 409 375 412 342 q 404 433 406 408 q 410 520 404 479 q 430 601 416 562 q 523 766 457 679 q 361 729 443 766 q 241 641 280 691 q 202 541 202 591 q 216 492 202 519 q 235 443 235 460 q 225 418 235 427 q 201 408 216 408 q 163 431 180 408 q 142 505 142 460 q 204 663 142 587 q 376 777 266 739 q 461 800 419 792 q 579 810 517 810 q 604 810 597 810 q 652 817 610 811 q 534 592 562 684 q 505 349 505 501 q 517 133 505 231 l 648 272 l 759 386 q 985 659 926 558 q 1029 795 1029 734 q 1026 831 1029 814 q 1013 872 1023 848 q 1004 909 1004 896 q 1018 941 1004 928 q 1050 955 1032 955 q 1094 928 1076 955 q 1112 846 1112 901 q 1106 789 1112 817 q 1089 730 1101 762 q 1053 660 1078 699 q 991 573 1029 621 q 763 321 920 480 q 436 -28 602 159 z "},"W":{"ha":1222,"x_min":134,"x_max":1433,"o":"m 833 -60 l 846 377 q 853 512 846 448 q 873 650 860 576 q 774 506 836 604 q 590 229 686 363 q 390 -33 495 96 q 371 91 372 76 q 366 178 366 138 q 363 264 366 216 q 357 390 357 374 q 362 506 357 456 q 380 594 368 555 q 472 762 405 670 q 270 681 345 747 q 195 545 195 614 q 210 491 195 520 q 226 450 224 462 q 214 420 226 432 q 187 409 204 409 q 152 429 165 409 q 134 495 134 454 q 169 622 134 557 q 264 728 205 686 q 398 788 323 769 q 537 809 437 798 l 603 818 q 456 401 456 612 q 463 264 460 330 q 466 139 466 199 q 538 232 504 185 q 655 405 557 258 q 882 730 807 635 q 1002 851 935 795 q 937 117 937 595 l 1107 328 q 1175 420 1139 368 q 1246 527 1211 471 q 1303 628 1280 583 q 1339 712 1326 673 q 1352 791 1352 752 q 1335 873 1352 831 q 1326 897 1329 888 q 1324 912 1324 905 q 1337 943 1324 930 q 1371 956 1351 956 q 1411 932 1396 956 q 1433 850 1433 901 q 1386 669 1433 781 q 1177 342 1339 557 q 987 106 1073 206 q 833 -60 901 5 z "},"X":{"ha":778,"x_min":-11,"x_max":1031,"o":"m 298 746 l 307 786 q 332 790 318 789 q 363 791 345 791 l 406 791 q 430 791 418 791 q 444 793 441 793 q 477 795 458 793 q 519 801 496 798 q 529 668 519 736 q 559 520 538 600 q 762 766 657 654 q 883 863 825 834 q 968 882 924 882 q 1016 870 1000 882 q 1031 840 1031 859 q 1017 810 1031 822 q 948 794 1004 800 q 852 768 892 789 q 759 690 812 749 q 669 587 713 640 q 574 465 626 534 q 623 275 606 368 q 640 93 640 181 q 640 66 640 85 q 639 36 639 47 q 698 28 670 28 q 771 33 724 28 l 763 -6 l 728 -8 q 673 -4 710 -8 q 613 0 635 0 q 534 -6 593 0 q 543 77 543 41 q 532 230 543 157 q 502 368 522 303 l 392 214 q 176 -39 250 17 q 39 -94 102 -94 q 2 -82 16 -94 q -11 -53 -11 -69 q 3 -23 -11 -36 q 54 -7 16 -12 q 179 43 127 3 q 356 244 248 96 l 486 423 q 420 755 420 633 l 378 757 q 298 746 342 757 z "},"Y":{"ha":778,"x_min":134,"x_max":1122,"o":"m 739 40 l 725 0 q 653 -11 680 -11 q 614 -10 626 -11 q 573 -6 602 -9 q 526 -1 545 -3 q 490 0 507 0 q 439 -2 468 0 q 363 -9 410 -4 l 375 25 q 454 60 438 41 q 509 222 471 78 q 547 412 547 367 q 512 598 547 503 q 424 753 477 694 q 281 684 325 716 q 212 605 237 652 q 186 523 186 557 q 217 458 186 489 q 243 413 243 433 q 233 384 243 395 q 207 372 222 372 q 160 399 179 372 q 134 489 134 437 q 176 631 134 565 q 294 742 218 696 q 351 769 316 755 q 439 798 386 782 q 506 821 475 808 q 597 660 563 752 q 645 430 631 568 q 885 801 770 693 q 1072 909 999 909 q 1108 897 1095 909 q 1122 865 1122 884 q 1105 833 1122 846 q 1081 822 1097 826 q 1041 817 1065 817 q 1001 812 1019 817 q 968 798 982 807 q 912 754 942 783 q 848 683 882 726 q 712 473 781 602 q 610 210 646 347 q 572 32 576 77 q 603 28 588 29 q 635 26 617 26 q 684 29 662 26 q 739 40 707 32 z "},"Z":{"ha":861,"x_min":92,"x_max":931,"o":"m 764 710 q 673 700 720 700 q 496 729 597 700 q 416 747 431 747 q 372 735 387 747 q 356 706 356 723 q 378 671 356 688 q 406 644 399 654 q 412 621 412 634 q 399 592 412 605 q 370 579 387 579 q 324 604 344 579 q 304 672 304 629 q 349 773 304 731 q 459 816 394 816 q 559 807 503 816 q 758 787 692 787 q 884 817 823 787 q 908 825 901 825 q 923 820 916 825 q 931 807 930 814 q 868 730 931 787 q 745 611 806 674 l 406 260 l 212 50 q 433 92 359 92 q 663 47 539 92 q 758 23 730 23 q 804 37 788 23 q 819 76 819 50 q 812 109 819 90 q 804 138 804 127 q 818 171 804 157 q 850 185 831 185 q 885 168 870 185 q 899 124 899 151 q 847 16 899 59 q 728 -27 795 -27 q 581 -14 687 -27 q 344 0 475 0 q 142 -21 193 0 q 111 -29 121 -29 q 97 -23 104 -29 q 92 -9 93 -18 q 118 35 92 9 l 221 140 q 412 335 282 205 l 616 543 q 764 710 692 619 z "},"[":{"ha":333,"x_min":87,"x_max":559,"o":"m 355 934 l 559 934 l 549 891 l 420 891 l 174 -191 l 300 -191 l 291 -233 l 87 -233 l 355 934 z "},"\\":{"ha":667,"x_min":290,"x_max":652,"o":"m 652 -260 l 582 -260 l 290 939 l 361 939 l 652 -260 z "},"]":{"ha":444,"x_min":45,"x_max":517,"o":"m 250 -233 l 45 -233 l 54 -191 l 184 -191 l 431 891 l 303 891 l 313 934 l 517 934 l 250 -233 z "},"^":{"ha":722,"x_min":342,"x_max":685,"o":"m 418 570 l 342 570 l 477 793 l 550 793 l 685 570 l 609 570 l 513 706 l 418 570 z "},"_":{"ha":694,"x_min":-8,"x_max":703,"o":"m -8 -104 l 703 -104 l 703 -174 l -8 -174 l -8 -104 z "},"`":{"ha":306,"x_min":211,"x_max":399,"o":"m 211 849 l 324 849 l 399 652 l 358 652 l 211 849 z "},"a":{"ha":583,"x_min":102,"x_max":656,"o":"m 581 582 l 625 591 l 574 420 q 517 184 545 321 q 502 90 502 108 q 519 69 502 69 q 553 83 529 69 q 634 146 595 108 l 656 119 q 557 34 576 47 q 474 -10 515 5 q 424 -20 448 -20 q 398 -11 407 -20 q 389 12 389 -3 q 389 24 389 20 q 394 40 390 28 l 421 132 q 282 12 363 62 q 191 -19 232 -19 q 131 9 153 -19 q 102 106 102 45 q 141 266 102 178 q 243 426 179 354 q 379 532 308 498 q 520 558 435 558 q 547 558 533 558 q 564 555 559 556 l 581 582 m 496 478 q 435 486 458 486 q 329 453 373 486 q 244 332 284 420 q 205 157 205 244 q 220 91 205 111 q 261 71 236 71 q 361 121 309 71 q 440 267 414 171 l 496 478 z "},"b":{"ha":583,"x_min":162,"x_max":661,"o":"m 324 452 q 432 540 378 511 q 526 568 485 568 q 602 530 573 568 q 631 416 631 492 q 579 198 631 303 q 449 36 527 92 q 299 -20 372 -20 q 200 17 237 -20 q 162 112 162 54 q 180 242 162 159 l 260 601 q 333 801 289 732 q 450 911 378 870 q 586 952 522 952 q 642 939 625 952 q 661 903 661 926 q 644 870 661 884 q 598 856 627 856 q 521 866 576 856 q 498 869 509 868 q 477 871 487 871 q 422 834 444 871 q 380 690 408 806 l 324 452 m 458 493 q 379 453 425 493 q 293 312 334 414 q 252 113 252 210 q 275 51 252 76 q 330 26 298 26 q 464 145 405 26 q 523 382 523 264 q 500 470 523 435 q 458 493 485 493 z "},"c":{"ha":472,"x_min":119,"x_max":560,"o":"m 490 147 l 505 108 q 232 -19 343 -19 q 146 23 173 -19 q 119 130 119 65 q 176 349 119 236 q 315 524 233 463 q 458 570 378 570 q 534 552 509 570 q 560 505 560 533 q 546 471 560 484 q 509 458 532 458 q 446 480 484 458 q 383 503 408 503 q 317 472 351 503 q 254 355 285 444 q 232 269 239 311 q 224 181 224 227 q 250 81 224 117 q 271 61 259 68 q 301 54 283 54 q 490 147 381 54 z "},"d":{"ha":611,"x_min":104,"x_max":923,"o":"m 640 140 l 659 115 q 524 13 568 38 q 428 -22 463 -22 q 401 -12 411 -22 q 391 8 391 -4 q 393 22 391 16 q 399 46 394 29 l 422 129 q 287 10 341 41 q 189 -21 232 -21 q 129 11 154 -21 q 104 103 104 42 q 171 324 104 199 q 318 510 237 450 q 466 570 399 570 q 511 565 482 570 q 571 756 542 696 q 646 862 600 817 q 752 930 692 906 q 863 955 811 955 q 906 941 889 955 q 923 905 923 926 q 908 870 923 884 q 867 857 893 857 q 804 864 849 857 l 741 871 q 700 857 718 871 q 665 793 682 842 q 616 599 656 765 l 519 189 q 503 93 503 114 q 522 67 503 67 q 551 76 535 67 q 584 98 562 82 q 640 140 606 113 m 496 490 q 420 503 442 503 q 332 467 375 503 q 248 329 288 432 q 207 151 207 227 q 225 94 207 116 q 268 72 243 72 q 333 97 297 72 q 416 188 385 133 q 465 354 434 221 l 496 490 z "},"e":{"ha":472,"x_min":112,"x_max":536,"o":"m 473 170 l 496 140 q 211 -18 330 -18 q 138 15 163 -18 q 112 119 112 48 q 200 408 112 264 q 437 572 299 572 q 510 548 484 572 q 536 481 536 524 q 506 396 536 439 q 396 306 475 353 q 336 275 376 294 q 228 225 296 256 q 222 155 222 189 q 237 88 222 107 q 281 69 252 69 q 342 85 311 69 q 473 170 387 104 m 236 269 q 400 374 345 317 q 428 413 418 393 q 437 452 437 432 q 422 498 437 480 q 382 515 408 515 q 334 496 357 515 q 280 420 302 472 q 236 269 250 349 z "},"f":{"ha":444,"x_min":-197,"x_max":768,"o":"m 141 526 l 303 526 q 394 778 343 695 q 529 909 446 861 q 685 957 612 957 q 747 941 725 957 q 768 902 768 924 q 754 868 768 882 q 717 854 739 854 q 627 869 694 854 q 605 873 610 872 q 576 876 588 876 q 496 821 532 876 q 438 671 460 766 l 404 526 l 583 526 l 572 478 l 391 478 l 284 45 q 126 -254 235 -152 q -111 -355 18 -355 q -175 -339 -153 -355 q -197 -298 -197 -322 q -182 -264 -197 -277 q -138 -252 -168 -252 q -120 -252 -125 -252 q -96 -255 -115 -252 q -5 -261 -50 -261 q 93 -230 62 -261 q 153 -75 123 -199 l 291 478 l 129 478 l 141 526 z "},"g":{"ha":555,"x_min":-18,"x_max":629,"o":"m 574 575 l 629 587 q 598 481 625 572 q 568 376 577 410 q 538 269 551 318 q 497 79 510 158 q 492 36 494 62 q 490 -17 490 10 q 469 -174 490 -113 q 362 -309 440 -258 q 178 -359 285 -359 q 34 -316 86 -359 q -18 -218 -18 -273 q -8 -165 -18 -190 q 24 -115 2 -140 q 71 -76 39 -97 q 154 -28 102 -55 q 201 -2 178 -16 q 248 26 224 11 q 170 0 198 0 q 125 23 146 0 q 111 50 116 35 q 106 85 106 65 q 181 333 106 210 q 359 518 255 456 q 521 556 424 556 l 568 555 l 574 575 m 498 475 q 441 481 466 481 q 331 448 376 481 q 252 333 286 414 q 218 229 229 276 q 206 142 206 182 q 224 89 206 111 q 264 67 242 67 q 294 73 278 67 q 332 93 311 79 q 396 158 372 119 q 449 294 421 196 l 498 475 m 406 105 q 229 -27 359 63 q 86 -141 112 -106 q 60 -215 60 -175 q 94 -285 60 -254 q 177 -315 129 -315 q 267 -293 223 -315 q 342 -227 310 -270 q 387 -130 374 -184 q 396 -67 393 -102 q 399 14 399 -31 q 406 105 399 37 z "},"h":{"ha":611,"x_min":121,"x_max":680,"o":"m 663 144 l 680 119 q 552 9 618 50 q 478 -19 507 -19 q 440 0 454 -19 q 425 59 425 18 q 436 139 425 86 q 500 361 448 191 q 517 426 511 401 q 523 459 523 452 q 500 482 523 482 q 429 454 471 482 q 323 353 369 415 q 276 237 294 315 l 222 1 l 121 1 q 149 108 133 45 q 171 195 161 154 l 271 630 q 342 814 297 749 q 458 918 387 880 q 600 957 529 957 q 646 943 627 957 q 663 907 663 928 q 646 874 663 888 q 601 861 629 861 q 582 861 593 861 q 559 864 572 862 q 478 872 500 872 q 428 847 448 872 q 387 729 408 823 l 311 394 q 486 537 391 478 q 576 572 541 572 q 617 555 602 572 q 632 511 632 539 q 631 488 632 496 q 627 464 631 481 q 612 410 623 447 q 585 320 602 374 q 533 140 545 185 q 526 77 526 104 q 529 61 526 66 q 541 55 532 56 q 602 94 557 55 l 663 144 z "},"i":{"ha":333,"x_min":110,"x_max":455,"o":"m 407 862 q 441 848 427 862 q 455 812 455 834 q 434 760 455 783 q 388 737 414 737 q 354 752 368 737 q 340 789 340 766 q 360 841 340 820 q 407 862 380 862 m 140 413 l 110 436 q 234 543 178 511 q 329 574 290 574 q 362 564 351 574 q 374 538 374 555 q 330 372 374 517 q 258 81 258 130 q 262 65 258 72 q 273 59 267 59 q 384 143 294 59 l 410 117 q 274 5 317 29 q 205 -19 232 -19 q 167 -4 182 -19 q 153 37 153 11 q 255 452 153 121 q 260 479 260 469 q 248 493 260 493 q 216 482 234 493 q 189 460 208 477 q 140 413 170 443 z "},"j":{"ha":306,"x_min":-154,"x_max":463,"o":"m 414 862 q 449 848 435 862 q 463 812 463 834 q 442 760 463 783 q 396 737 421 737 q 362 752 376 737 q 348 789 348 766 q 368 841 348 820 q 414 862 388 862 m 144 408 l 119 437 q 243 536 176 499 q 302 565 277 555 q 346 574 328 574 q 370 564 361 574 q 380 541 380 556 q 359 445 380 522 l 241 17 q 111 -278 182 -201 q -56 -355 40 -355 q -128 -337 -102 -355 q -154 -296 -154 -319 q -142 -269 -154 -281 q -113 -257 -130 -257 q -91 -261 -104 -257 q -59 -275 -78 -265 q 3 -295 -18 -295 q 63 -262 41 -295 q 130 -47 85 -229 q 158 68 144 11 q 184 170 180 155 q 208 254 189 186 l 255 425 q 269 477 269 467 q 264 486 269 481 q 255 490 260 490 q 144 408 228 490 z "},"k":{"ha":611,"x_min":122,"x_max":912,"o":"m 223 0 l 122 0 l 211 370 q 295 709 275 647 q 343 813 315 772 q 414 887 372 854 q 505 937 456 919 q 592 954 555 954 q 644 941 627 954 q 662 905 662 927 q 646 872 662 886 q 607 859 631 859 q 517 869 578 859 q 482 873 497 873 q 443 858 462 873 q 409 805 424 844 q 368 646 395 767 l 320 429 q 455 543 386 503 q 506 565 481 557 q 556 572 531 572 q 613 547 590 572 q 637 483 637 522 q 562 353 637 412 q 465 308 523 324 q 332 292 408 292 q 415 241 384 270 q 445 210 431 228 q 476 165 460 192 q 554 3 507 118 q 657 -177 610 -132 q 763 -222 705 -222 q 818 -207 796 -222 q 840 -178 840 -193 q 833 -152 840 -168 q 827 -136 829 -144 q 825 -122 825 -129 q 838 -95 825 -108 q 866 -82 850 -82 q 898 -97 884 -82 q 912 -138 912 -113 q 867 -224 912 -186 q 751 -262 822 -262 q 619 -225 677 -262 q 509 -106 561 -189 q 408 111 480 -58 q 347 231 374 190 q 289 292 326 261 l 223 0 m 294 321 q 443 339 387 321 q 523 387 498 357 q 547 454 547 418 q 533 495 547 479 q 500 511 519 511 q 304 368 437 511 l 294 321 z "},"l":{"ha":333,"x_min":131,"x_max":657,"o":"m 400 163 l 423 139 q 299 31 371 81 q 179 -19 227 -19 q 145 -3 159 -19 q 131 41 131 13 q 141 123 131 68 q 173 266 151 178 l 246 564 q 313 780 286 724 q 432 909 355 863 q 595 956 510 956 q 640 942 623 956 q 657 908 657 928 q 641 872 657 888 q 593 859 624 859 q 536 865 572 859 q 505 869 519 868 q 475 871 491 871 q 433 859 448 871 q 397 791 414 844 q 346 585 383 743 l 279 300 q 229 77 230 92 q 244 56 229 56 q 262 60 252 56 q 288 73 273 64 q 400 163 344 108 z "},"m":{"ha":861,"x_min":116,"x_max":930,"o":"m 136 414 l 116 441 q 243 540 182 508 q 338 572 304 572 q 359 567 352 572 q 367 549 366 561 q 356 497 367 536 q 345 455 350 475 q 334 407 340 436 q 583 572 498 572 q 617 560 605 572 q 629 522 629 547 q 608 425 629 494 q 743 539 686 505 q 831 572 800 572 q 876 556 859 572 q 887 536 883 548 q 891 506 891 524 q 884 456 891 485 q 835 288 878 427 q 781 79 781 111 q 800 56 781 56 q 825 64 812 56 q 907 134 866 93 l 930 110 l 876 62 q 802 1 821 12 q 735 -22 762 -22 q 700 -2 715 -22 q 684 54 684 18 q 686 89 684 71 q 692 129 688 107 q 711 198 697 150 q 749 326 724 246 q 783 465 783 440 q 763 488 783 488 q 718 471 747 488 q 620 385 659 437 q 572 273 594 351 q 505 0 529 112 l 408 0 l 509 414 l 520 466 q 515 483 520 477 q 499 488 509 488 q 442 460 481 488 q 345 366 376 413 q 295 229 317 323 l 243 0 l 146 0 l 222 323 q 256 476 256 465 q 244 492 256 492 q 136 414 218 492 z "},"n":{"ha":639,"x_min":115,"x_max":707,"o":"m 138 412 l 115 435 q 254 545 202 518 q 342 572 306 572 q 364 566 356 572 q 372 552 372 560 q 371 540 372 546 q 369 530 370 534 l 338 394 q 512 537 408 470 q 604 572 567 572 q 645 555 630 572 q 660 506 660 538 q 654 458 660 486 q 597 267 644 416 q 553 83 553 126 q 557 63 553 70 q 569 56 562 56 q 631 94 589 56 q 667 125 639 101 q 690 144 681 136 l 707 119 q 578 8 646 51 q 539 -13 555 -6 q 507 -19 522 -19 q 468 0 482 -19 q 453 60 453 18 q 528 361 453 119 q 551 460 551 449 q 526 481 551 481 q 456 453 500 481 q 350 354 393 411 q 304 237 324 318 l 250 1 l 149 1 q 175 99 162 50 q 198 195 187 147 l 258 453 l 262 475 q 248 494 262 494 q 217 479 239 494 q 138 412 176 452 z "},"o":{"ha":555,"x_min":118,"x_max":609,"o":"m 454 570 q 565 517 520 570 q 609 370 609 464 q 503 100 609 220 q 279 -20 397 -20 q 163 28 208 -20 q 118 157 118 75 q 199 420 118 299 q 454 570 301 570 m 397 519 q 285 437 339 519 q 231 210 231 354 q 264 71 231 122 q 330 33 290 33 q 433 104 387 33 q 493 331 493 197 q 466 476 493 433 q 397 519 438 519 z "},"p":{"ha":611,"x_min":-20,"x_max":675,"o":"m 128 402 l 102 429 q 224 538 162 502 q 330 574 287 574 q 357 565 347 574 q 367 541 367 557 q 366 521 367 528 q 361 495 366 514 q 335 402 357 476 q 477 530 440 507 q 537 561 507 550 q 593 572 567 572 q 651 539 627 572 q 675 441 675 506 q 573 129 675 277 q 347 -19 471 -19 q 249 7 298 -19 l 191 -216 q 186 -250 186 -238 q 205 -286 186 -273 q 328 -313 232 -301 l 319 -347 q 217 -343 276 -347 q 147 -338 159 -338 q -20 -347 79 -338 l -11 -313 q 63 -286 39 -309 q 102 -203 86 -263 l 224 312 q 259 472 259 456 q 242 490 259 490 q 128 402 213 490 m 265 82 q 375 28 319 28 q 518 156 456 28 q 579 403 579 283 q 562 461 579 441 q 515 481 545 481 q 442 450 482 481 q 346 351 379 401 q 301 229 323 317 l 265 82 z "},"q":{"ha":555,"x_min":106,"x_max":652,"o":"m 605 596 l 652 596 q 626 511 642 568 q 595 397 612 465 q 557 252 569 298 l 440 -239 l 437 -267 q 451 -295 437 -286 q 529 -315 464 -304 l 517 -352 q 374 -338 446 -338 q 191 -352 302 -338 l 199 -315 q 252 -310 229 -315 q 289 -296 274 -304 q 332 -255 316 -283 q 369 -140 347 -227 l 435 140 q 290 16 367 62 q 188 -20 229 -20 q 130 12 155 -20 q 106 106 106 45 q 229 416 106 259 q 505 574 353 574 q 539 572 522 574 q 581 564 557 570 l 605 596 m 517 482 q 432 496 467 496 q 327 461 373 496 q 242 332 280 426 q 205 151 205 239 q 222 90 205 112 q 267 68 240 68 q 327 94 290 68 q 429 193 394 141 q 478 328 454 227 l 517 482 z "},"r":{"ha":416,"x_min":113,"x_max":602,"o":"m 243 0 l 142 0 l 190 182 q 212 270 198 214 q 232 356 228 336 q 250 437 237 376 q 256 475 256 467 q 241 491 256 491 q 211 477 232 491 q 134 408 189 463 l 113 432 q 244 536 178 501 q 342 572 309 572 q 361 566 354 572 q 369 551 368 561 q 360 505 369 542 l 331 383 q 486 568 398 490 q 555 604 526 604 q 589 591 575 604 q 602 560 602 578 q 589 529 602 542 q 523 498 576 517 q 441 458 473 482 q 373 386 409 433 q 319 300 336 338 q 274 132 306 265 l 243 0 z "},"s":{"ha":444,"x_min":88,"x_max":542,"o":"m 416 571 q 509 548 476 571 q 542 494 542 524 q 528 462 542 476 q 494 448 514 448 q 472 454 481 448 q 445 483 463 460 q 379 527 412 527 q 330 506 351 527 q 309 452 309 484 q 322 398 309 425 q 391 314 336 372 q 466 162 466 235 q 405 37 466 91 q 248 -18 343 -18 q 128 15 168 -18 q 88 96 88 48 q 103 136 88 120 q 140 151 117 151 q 172 139 159 151 q 186 109 186 126 l 184 92 l 184 77 q 203 39 184 55 q 253 23 222 23 q 317 35 289 23 q 361 73 345 47 q 376 124 376 99 q 361 173 376 149 q 338 205 354 185 q 296 254 323 224 q 226 405 226 332 q 279 521 226 471 q 416 571 333 571 z "},"t":{"ha":444,"x_min":149,"x_max":507,"o":"m 308 675 l 416 716 l 367 526 l 507 526 l 496 478 l 356 478 l 296 251 q 269 109 269 148 q 276 82 269 90 q 298 74 284 74 q 362 99 318 74 q 471 174 418 131 l 496 143 q 297 6 348 31 q 217 -19 246 -19 q 177 -1 193 -19 q 163 59 163 18 q 169 121 163 84 q 189 208 175 157 l 258 478 l 149 478 l 161 526 l 270 526 l 308 675 z "},"u":{"ha":639,"x_min":114,"x_max":707,"o":"m 576 552 l 673 552 l 609 315 q 553 81 553 109 q 559 61 553 69 q 572 54 565 55 q 600 64 583 54 q 684 143 622 79 l 707 118 q 506 -24 570 -24 q 469 -7 485 -24 q 454 40 454 10 q 469 134 454 75 q 319 13 410 66 q 217 -22 260 -22 q 180 -6 193 -22 q 166 43 166 9 q 173 106 166 70 q 217 272 180 142 q 251 402 239 354 q 262 468 262 451 q 249 487 262 487 q 215 474 237 487 q 144 414 194 461 l 114 437 q 252 544 203 518 q 330 570 300 570 q 356 558 346 570 q 366 521 366 546 q 317 291 366 474 q 274 103 274 123 q 283 78 274 88 q 303 68 292 68 q 411 131 342 68 q 503 274 480 194 l 576 552 z "},"v":{"ha":611,"x_min":98,"x_max":697,"o":"m 431 506 q 358 359 380 425 q 343 296 348 326 q 338 232 338 267 q 345 158 338 202 q 364 50 351 113 q 576 263 514 163 q 639 434 639 363 q 623 489 639 456 q 606 537 606 522 q 618 568 606 554 q 648 581 631 581 q 684 562 670 581 q 697 496 697 543 q 595 215 697 352 q 277 -44 470 47 q 258 58 272 -9 q 230 253 230 200 q 263 394 230 326 q 364 512 297 461 q 263 506 304 512 q 193 486 222 499 q 157 444 157 468 q 166 412 157 434 q 172 386 172 397 q 163 367 172 376 q 140 358 155 358 q 111 373 123 358 q 98 413 98 387 q 125 485 98 452 q 216 536 151 517 q 291 549 247 545 q 389 553 334 553 q 444 572 433 572 q 463 564 454 572 q 472 544 471 555 q 431 506 472 524 z "},"w":{"ha":945,"x_min":102,"x_max":1027,"o":"m 398 551 q 446 573 429 573 q 466 565 458 573 q 475 544 475 556 q 435 507 475 517 l 382 405 q 366 364 374 385 q 353 319 359 342 q 343 232 343 275 q 370 52 343 175 q 565 237 473 120 l 564 279 q 608 515 564 429 q 673 572 637 572 q 707 554 693 572 q 722 500 722 536 q 711 437 722 471 q 691 377 701 403 q 667 323 681 351 q 673 169 667 235 q 693 52 680 103 q 851 191 774 106 q 937 320 907 252 q 966 429 966 388 q 951 484 966 450 q 934 540 934 524 q 947 570 934 557 q 978 583 960 583 q 1014 561 1000 583 q 1027 485 1027 540 q 906 192 1027 345 q 609 -45 785 39 q 569 175 589 24 q 454 64 478 84 q 368 1 409 27 q 279 -45 327 -24 q 269 22 275 -12 q 257 80 269 26 q 233 254 233 203 q 267 392 233 325 q 310 456 284 426 q 370 512 336 486 q 267 505 310 512 q 192 483 224 498 q 160 443 160 467 q 168 414 160 435 q 174 399 172 404 q 176 387 175 394 q 167 366 176 375 q 144 357 158 357 q 115 373 127 357 q 102 417 102 389 q 151 505 102 471 q 247 540 186 529 q 398 551 307 551 z "},"x":{"ha":583,"x_min":33,"x_max":808,"o":"m 182 433 l 162 460 q 288 550 235 522 q 341 570 323 570 q 382 544 367 570 q 427 384 404 509 q 574 553 509 506 q 683 601 640 601 q 719 588 705 601 q 732 556 732 576 q 713 522 732 536 q 687 512 706 517 q 640 508 667 508 q 594 499 616 508 q 553 475 573 491 q 437 330 495 427 l 481 127 q 539 -71 509 -7 q 614 -170 570 -134 q 669 -189 639 -189 q 732 -136 712 -189 q 774 -102 745 -102 q 797 -113 787 -102 q 808 -141 808 -124 q 770 -202 808 -174 q 673 -230 732 -230 q 549 -189 608 -230 q 447 -58 490 -148 q 367 231 404 33 l 323 170 q 192 15 239 50 q 102 -20 144 -20 q 52 -4 72 -20 q 33 36 33 13 q 45 69 33 55 q 75 83 58 83 q 111 60 92 83 q 141 39 127 39 q 162 45 150 39 q 208 86 178 54 q 270 162 246 128 l 354 286 l 326 413 q 304 478 316 463 q 279 494 293 494 q 251 483 269 494 q 182 433 211 460 z "},"y":{"ha":555,"x_min":-41,"x_max":633,"o":"m 116 433 l 94 465 l 144 498 q 248 563 216 547 q 279 571 264 571 q 306 555 292 571 q 406 352 364 480 q 447 104 447 224 l 446 56 q 560 391 560 268 q 548 463 560 418 q 536 528 536 507 q 549 560 536 547 q 581 573 562 573 q 618 554 603 573 q 633 503 633 536 q 624 404 633 457 q 593 284 614 351 q 468 4 554 154 q 312 -219 382 -145 q 174 -324 241 -292 q 49 -355 108 -355 q -19 -338 3 -355 q -41 -299 -41 -321 q -24 -264 -41 -279 q 24 -250 -6 -250 q 89 -259 47 -250 q 145 -268 131 -268 q 233 -233 186 -268 q 332 -120 296 -186 q 360 -54 351 -87 q 370 13 370 -22 q 342 240 370 109 q 264 441 315 371 q 211 477 240 477 q 116 433 179 477 z "},"z":{"ha":611,"x_min":50,"x_max":667,"o":"m 547 500 q 488 488 518 492 q 433 483 458 483 q 403 484 419 483 q 370 486 387 484 l 306 492 q 274 482 285 492 q 264 458 264 473 q 291 433 264 436 q 319 405 319 429 q 309 384 319 393 q 288 375 299 375 q 242 399 263 375 q 222 459 222 423 q 261 538 222 505 q 356 572 300 572 q 437 564 385 572 q 508 554 479 557 q 555 551 536 551 q 623 575 591 551 q 648 586 637 585 q 661 581 656 586 q 667 571 667 576 q 660 556 667 564 q 555 449 637 528 l 345 248 q 191 105 249 156 q 252 109 230 109 q 307 104 285 109 q 388 81 332 100 q 506 56 462 56 q 550 69 534 56 q 565 102 565 82 q 554 135 565 114 q 545 166 546 153 q 555 194 545 182 q 583 205 566 205 q 615 190 602 205 q 629 149 629 174 q 601 69 629 111 q 531 5 574 28 q 427 -18 489 -18 q 279 12 375 -18 q 159 35 196 35 q 106 11 138 35 q 75 -4 87 -4 q 50 8 50 -4 q 64 36 50 18 q 131 104 84 59 q 257 221 177 149 q 440 394 361 316 l 547 500 z "},"{":{"ha":333,"x_min":121,"x_max":585,"o":"m 585 935 l 579 911 q 506 898 538 911 q 456 861 475 884 q 372 621 412 806 q 330 442 338 465 q 290 372 314 398 q 237 345 272 355 q 284 269 284 316 q 283 248 284 254 q 279 222 283 241 q 245 86 276 201 q 218 -18 235 46 q 205 -75 208 -60 q 199 -134 199 -110 q 227 -193 199 -169 q 263 -211 242 -205 q 311 -218 283 -218 l 305 -243 q 162 -213 203 -243 q 121 -132 121 -183 q 133 -44 121 -104 q 171 111 145 16 q 206 271 206 248 q 192 318 206 300 q 141 345 179 336 q 207 369 181 349 q 243 415 232 389 q 286 584 250 433 q 343 803 328 762 q 419 901 368 868 q 487 926 446 917 q 585 935 528 935 z "},"|":{"ha":722,"x_min":452,"x_max":528,"o":"m 452 -420 l 452 1119 l 528 1119 l 528 -420 l 452 -420 z "},"}":{"ha":333,"x_min":-53,"x_max":411,"o":"m -53 -243 l -48 -220 q 25 -207 -6 -220 q 75 -170 56 -193 q 159 70 119 -115 q 201 249 193 228 q 242 319 218 293 q 294 347 260 335 q 248 422 248 374 q 248 443 248 436 q 252 467 249 450 q 287 606 255 484 q 326 766 318 728 q 332 825 332 799 q 304 883 332 860 q 269 902 290 895 q 221 909 248 909 l 227 935 q 371 903 329 935 q 411 823 411 875 q 399 735 411 795 q 361 580 387 675 q 325 420 325 444 q 339 372 325 391 q 390 347 353 357 q 326 323 351 342 q 289 276 300 303 q 246 107 282 258 q 189 -113 204 -72 q 112 -210 164 -178 q 45 -235 85 -226 q -53 -243 4 -243 z "},"~":{"ha":722,"x_min":191,"x_max":791,"o":"m 749 498 l 791 451 q 708 351 751 381 q 623 321 666 321 q 583 327 606 321 q 463 372 560 333 q 359 401 387 401 q 298 380 326 401 q 233 294 271 359 l 191 343 q 277 453 239 425 q 360 481 315 481 q 507 437 403 481 q 624 400 600 400 q 749 498 690 400 z "},"":{"ha":250,"x_min":17,"x_max":199,"o":"m 29 -198 l 17 -152 q 91 -72 74 -103 q 109 -14 109 -41 q 92 31 109 0 q 79 77 79 56 q 96 120 79 102 q 137 138 112 138 q 181 118 163 138 q 199 66 199 98 q 188 2 199 37 q 153 -67 177 -33 q 80 -147 135 -94 l 29 -198 z "},"":{"ha":555,"x_min":-195,"x_max":751,"o":"m 373 478 l 267 57 q 224 -84 246 -25 q 177 -183 202 -143 q 119 -254 152 -223 q 45 -309 87 -286 q -113 -356 -37 -356 q -174 -339 -153 -356 q -195 -302 -195 -322 q -180 -268 -195 -283 q -143 -254 -164 -254 q -76 -264 -126 -254 q -3 -275 -26 -275 q 63 -241 37 -275 q 136 -70 105 -188 l 273 478 l 111 478 l 124 526 l 286 526 q 376 778 324 694 q 510 908 429 861 q 591 943 551 931 q 669 956 631 956 q 730 939 709 956 q 751 901 751 922 q 736 868 751 882 q 699 853 720 853 q 632 864 682 853 q 559 875 582 875 q 492 840 520 875 q 421 669 449 783 l 387 526 l 566 526 l 554 478 l 373 478 z "},"":{"ha":389,"x_min":11,"x_max":369,"o":"m 199 -198 l 186 -155 q 261 -74 243 -104 q 278 -16 278 -44 q 262 28 278 -2 q 249 75 249 54 q 265 118 249 100 q 307 136 281 136 q 351 116 332 136 q 369 64 369 96 q 332 -55 369 7 q 199 -198 295 -117 m 22 -198 l 11 -155 q 85 -74 68 -104 q 102 -16 102 -44 q 86 28 102 -2 q 73 75 73 54 q 90 118 73 100 q 131 136 106 136 q 175 116 157 136 q 193 64 193 96 q 156 -55 193 7 q 22 -198 119 -117 z "},"":{"ha":1389,"x_min":163,"x_max":1225,"o":"m 700 146 q 745 126 726 146 q 763 76 763 106 q 742 7 763 32 q 688 -18 721 -18 q 644 0 664 -18 q 627 47 627 19 q 652 123 627 91 q 700 146 670 146 m 1163 146 q 1207 126 1189 146 q 1225 76 1225 106 q 1204 7 1225 32 q 1152 -18 1183 -18 q 1107 0 1125 -18 q 1089 47 1089 19 q 1114 123 1089 91 q 1163 146 1133 146 m 237 146 q 281 126 263 146 q 300 76 300 106 q 279 7 300 32 q 226 -18 258 -18 q 181 0 199 -18 q 163 47 163 19 q 189 123 163 91 q 237 146 207 146 z "},"":{"ha":639,"x_min":188,"x_max":707,"o":"m 408 608 l 477 911 q 486 939 482 935 q 508 947 490 943 q 568 956 557 956 q 585 941 585 956 q 585 933 585 937 q 580 917 582 924 l 493 608 q 616 631 569 623 q 684 638 663 638 q 707 621 707 638 q 705 604 707 614 q 702 589 703 595 q 691 553 696 560 q 675 545 686 546 q 483 570 645 545 l 255 -264 q 242 -297 248 -291 q 227 -304 237 -302 q 213 -285 213 -304 l 215 -270 l 399 570 q 212 545 251 545 q 195 551 202 545 q 188 564 189 557 q 195 597 188 574 l 203 627 q 221 637 207 637 q 408 608 262 637 z "},"":{"ha":667,"x_min":58,"x_max":734,"o":"m 447 652 l 490 898 q 502 937 495 928 q 530 950 509 945 q 555 956 551 954 l 579 960 q 593 954 587 960 q 600 939 599 948 q 593 904 600 926 l 513 652 q 710 684 686 684 q 728 677 721 684 q 734 665 734 673 q 722 604 734 642 q 699 587 717 587 q 506 612 669 587 l 417 315 l 359 36 q 558 60 522 60 q 580 40 580 60 q 567 -14 580 20 q 546 -34 559 -34 q 487 -26 535 -34 q 348 0 439 -18 l 304 -253 q 292 -290 299 -283 q 266 -300 285 -296 l 212 -305 q 195 -292 195 -305 q 202 -262 195 -284 l 283 0 q 77 -33 113 -33 q 64 -26 71 -33 q 58 -12 60 -21 q 66 24 58 4 l 75 49 q 85 58 79 54 l 99 60 q 290 36 144 60 l 374 315 l 433 615 q 376 606 410 611 q 297 595 342 602 l 241 591 q 226 596 233 591 q 218 610 218 602 q 220 626 218 617 l 227 650 q 237 677 231 670 q 254 684 243 684 q 297 679 269 684 l 447 652 z "},"":{"ha":472,"x_min":244,"x_max":578,"o":"m 427 850 l 529 850 l 578 653 l 540 653 l 469 777 l 288 653 l 244 653 l 427 850 z "},"":{"ha":1333,"x_min":218,"x_max":1341,"o":"m 326 -5 q 378 85 349 35 q 425 166 394 112 l 673 618 l 775 812 l 829 803 q 711 601 766 699 l 494 204 q 437 97 467 156 q 382 -10 411 47 l 348 -6 l 326 -5 m 431 812 q 523 773 488 812 q 559 663 559 734 q 486 453 559 546 q 347 378 427 378 q 255 418 292 378 q 218 524 218 458 q 279 721 218 630 q 431 812 340 812 m 422 784 q 342 699 380 784 q 305 511 305 614 q 322 433 305 458 q 359 408 338 408 q 427 473 396 408 q 472 680 472 569 q 454 762 472 733 q 422 784 441 784 m 812 424 q 904 385 868 424 q 939 275 939 345 q 866 64 939 157 q 727 -10 807 -10 q 635 30 672 -10 q 599 135 599 69 q 660 333 599 241 q 812 424 720 424 m 802 395 q 723 310 760 395 q 686 122 686 225 q 702 44 686 70 q 739 19 719 19 q 808 85 777 19 q 852 291 852 180 q 835 374 852 345 q 802 395 821 395 m 1214 424 q 1305 385 1269 424 q 1341 275 1341 345 q 1268 64 1341 157 q 1129 -10 1209 -10 q 1037 30 1074 -10 q 1001 135 1001 69 q 1062 333 1001 241 q 1214 424 1122 424 m 1204 395 q 1125 310 1162 395 q 1088 122 1088 225 q 1104 44 1088 70 q 1141 19 1121 19 q 1210 85 1179 19 q 1255 291 1255 180 q 1237 374 1255 345 q 1204 395 1223 395 z "},"":{"ha":639,"x_min":26,"x_max":820,"o":"m 698 550 l 663 550 q 670 658 670 625 q 642 740 670 709 q 566 770 614 770 q 435 716 490 770 q 380 595 380 663 q 395 530 380 559 q 463 449 410 501 q 587 303 557 357 q 618 199 618 249 q 573 57 618 125 q 440 -56 528 -11 q 254 -100 352 -100 q 92 -50 158 -100 q 26 56 26 0 q 43 105 26 85 q 83 125 60 125 q 121 106 104 125 q 140 55 130 97 q 166 -9 150 13 q 209 -43 180 -28 q 269 -56 237 -56 q 438 9 366 -56 q 511 154 511 74 q 509 181 511 168 q 502 208 507 193 q 469 269 494 235 q 393 350 452 291 q 321 428 338 405 q 290 488 301 457 q 279 551 279 519 q 320 674 279 612 q 428 774 361 736 q 578 811 495 811 q 682 798 622 811 l 743 788 q 721 707 730 748 q 698 550 712 666 m 488 1097 l 529 1097 l 595 975 l 781 1097 l 820 1097 l 641 900 l 537 900 l 488 1097 z "},"":{"ha":333,"x_min":147,"x_max":427,"o":"m 239 279 q 299 179 256 256 q 339 90 326 130 q 347 56 347 66 q 328 36 347 36 q 300 63 313 36 q 147 282 274 123 l 279 401 l 353 473 l 376 499 q 409 525 395 525 q 422 519 416 525 q 427 507 426 515 q 424 492 427 499 q 354 402 416 478 q 239 279 314 353 z "},"":{"ha":1139,"x_min":142,"x_max":1206,"o":"m 1173 636 l 1137 636 q 1144 705 1144 685 q 1125 742 1144 730 q 1050 753 1106 753 q 948 752 994 753 q 863 750 902 751 q 790 452 850 679 l 927 452 q 997 462 985 452 q 1026 520 1006 468 l 1063 520 q 1015 321 1028 414 l 981 321 l 986 371 q 969 401 986 391 q 897 411 953 411 l 780 411 q 682 51 726 201 q 754 65 722 60 q 818 70 786 70 q 950 57 861 70 q 1072 44 1040 44 q 1125 55 1109 44 q 1141 82 1141 66 q 1128 111 1141 92 q 1111 156 1111 137 q 1121 184 1111 173 q 1148 196 1131 196 q 1187 176 1171 196 q 1203 124 1203 155 q 1154 24 1203 65 q 1016 -17 1105 -17 q 910 -12 965 -17 q 696 0 774 0 q 614 -2 652 0 q 527 -10 576 -4 q 452 -16 477 -16 q 226 73 310 -16 q 142 314 142 162 q 157 447 142 385 q 206 570 173 509 q 378 751 271 687 q 617 815 486 815 q 670 814 646 815 q 735 808 694 812 q 999 793 873 793 q 1049 794 1028 793 q 1090 795 1071 795 q 1129 799 1105 795 q 1206 810 1154 802 q 1183 722 1191 762 q 1176 681 1179 705 q 1173 636 1173 657 m 614 775 q 372 661 470 775 q 264 327 264 532 q 329 96 264 184 q 466 26 380 26 q 551 50 515 26 q 595 105 578 66 q 678 412 612 145 q 718 583 705 518 q 732 670 732 647 q 699 745 732 715 q 614 775 666 775 z "},"":{"ha":333,"x_min":271,"x_max":453,"o":"m 441 957 l 453 913 q 379 833 397 863 q 362 775 362 802 q 378 730 362 761 q 391 684 391 705 q 374 640 391 657 q 333 623 357 623 q 289 642 308 623 q 271 695 271 663 q 308 814 271 751 q 441 957 345 876 z "},"":{"ha":333,"x_min":271,"x_max":453,"o":"m 283 623 l 271 666 q 346 746 328 715 q 363 804 363 777 q 347 849 363 817 q 334 895 334 875 q 350 939 334 922 q 391 957 366 957 q 435 937 417 957 q 453 884 453 917 q 416 765 453 827 q 283 623 378 703 z "},"":{"ha":472,"x_min":252,"x_max":610,"o":"m 422 957 l 434 913 q 360 833 378 863 q 343 775 343 802 q 359 730 343 761 q 372 684 372 705 q 355 640 372 657 q 314 623 338 623 q 270 642 289 623 q 252 695 252 663 q 289 814 252 751 q 422 957 326 876 m 599 957 l 610 913 q 536 833 554 864 q 519 775 519 802 q 535 730 519 761 q 548 684 548 705 q 532 640 548 658 q 490 623 515 623 q 446 642 465 623 q 428 695 428 663 q 465 814 428 752 q 599 957 502 876 z "},"":{"ha":500,"x_min":267,"x_max":625,"o":"m 455 623 l 443 666 q 517 746 500 715 q 534 804 534 777 q 518 849 534 817 q 505 895 505 875 q 522 939 505 922 q 564 957 538 957 q 607 937 589 957 q 625 884 625 917 q 588 765 625 827 q 455 623 551 703 m 279 623 l 267 666 q 341 746 324 715 q 359 804 359 777 q 342 849 359 817 q 330 895 330 875 q 346 939 330 922 q 387 957 362 957 q 431 937 413 957 q 449 884 449 917 q 412 765 449 827 q 279 623 374 703 z "},"":{"ha":833,"x_min":347,"x_max":764,"o":"m 555 637 q 702 576 640 637 q 764 429 764 515 q 703 282 764 344 q 555 220 642 220 q 409 281 471 220 q 347 429 347 342 q 408 575 347 513 q 555 637 469 637 z "},"":{"ha":694,"x_min":86,"x_max":784,"o":"m 86 241 l 111 328 l 784 328 l 760 241 l 86 241 z "},"":{"ha":1389,"x_min":86,"x_max":1478,"o":"m 86 241 l 111 328 l 1478 328 l 1455 241 l 86 241 z "},"":{"ha":611,"x_min":324,"x_max":715,"o":"m 677 805 l 715 805 q 660 709 697 742 q 581 676 622 676 q 548 680 562 676 q 522 688 534 683 q 498 700 507 696 l 450 721 q 420 725 435 725 q 390 715 402 725 q 361 676 377 705 l 324 676 q 375 774 340 744 q 449 805 410 805 q 538 782 479 805 q 619 759 596 759 q 656 772 640 759 q 677 805 673 785 z "},"":{"ha":1389,"x_min":117,"x_max":1435,"o":"m 132 801 l 625 801 l 640 665 l 617 665 q 582 737 611 713 q 486 760 552 760 l 435 760 l 435 368 q 448 296 435 311 q 469 282 455 287 q 507 278 484 278 l 507 254 l 253 254 l 253 278 q 309 297 297 282 q 321 367 321 311 l 321 760 l 269 760 q 178 740 205 760 q 140 665 151 719 l 117 665 l 132 801 m 881 801 l 1066 413 l 1246 801 l 1435 801 l 1435 776 q 1384 768 1396 776 q 1366 747 1372 762 q 1360 684 1360 732 l 1360 367 q 1373 295 1360 310 q 1395 282 1379 287 q 1435 278 1410 278 l 1435 254 l 1165 254 l 1165 278 q 1219 286 1204 278 q 1240 309 1234 294 q 1246 366 1246 323 l 1246 700 l 1038 254 l 1016 254 l 807 694 l 807 367 q 812 308 807 321 q 831 286 818 294 q 870 278 844 278 l 895 278 l 895 254 l 687 254 l 687 278 q 738 284 725 278 q 757 306 751 291 q 764 367 764 320 l 764 683 q 759 747 764 734 q 739 768 753 760 q 719 774 732 772 q 687 776 706 776 l 687 801 l 881 801 z "},"":{"ha":444,"x_min":88,"x_max":640,"o":"m 416 571 q 509 548 476 571 q 542 494 542 524 q 528 462 542 476 q 494 448 514 448 q 472 454 481 448 q 445 483 463 460 q 379 527 412 527 q 330 506 351 527 q 309 452 309 484 q 322 398 309 425 q 391 314 336 372 q 466 162 466 235 q 405 37 466 91 q 248 -18 343 -18 q 128 15 168 -18 q 88 96 88 48 q 103 136 88 120 q 140 151 117 151 q 172 139 159 151 q 186 109 186 126 l 184 92 l 184 77 q 203 39 184 55 q 253 23 222 23 q 317 35 289 23 q 361 73 345 47 q 376 124 376 99 q 361 173 376 149 q 338 205 354 185 q 296 254 323 224 q 226 405 226 332 q 279 521 226 471 q 416 571 333 571 m 308 851 l 349 851 l 416 728 l 601 851 l 640 851 l 461 654 l 357 654 l 308 851 z "},"":{"ha":361,"x_min":81,"x_max":361,"o":"m 269 283 q 210 382 249 309 q 169 471 181 433 q 161 505 161 496 q 180 525 161 525 q 208 498 195 525 q 361 279 235 437 l 229 161 l 155 87 q 132 62 140 73 q 99 36 114 36 q 86 41 92 36 q 81 55 82 47 q 86 72 81 61 q 154 159 91 83 q 269 283 194 208 z "},"":{"ha":778,"x_min":119,"x_max":840,"o":"m 561 458 q 747 572 642 572 q 816 548 792 572 q 840 481 840 524 q 782 360 840 420 q 562 230 725 300 q 558 186 559 202 q 557 156 557 170 q 571 94 557 114 q 609 74 585 74 q 782 170 665 74 l 802 140 q 660 21 732 62 q 543 -18 591 -18 q 485 6 508 -18 q 456 78 464 30 q 367 4 414 28 q 264 -20 320 -20 q 161 28 203 -20 q 119 157 119 77 q 203 432 119 309 q 429 570 298 570 q 509 546 477 570 q 561 458 540 522 m 380 519 q 288 450 330 519 q 247 343 261 404 q 233 210 233 283 q 264 68 233 120 q 320 33 285 33 q 410 100 370 33 q 465 331 465 193 q 440 477 465 435 q 380 519 416 519 m 568 269 q 706 371 658 314 q 741 452 741 412 q 728 498 741 483 q 694 515 715 515 q 632 473 661 515 q 568 269 592 410 z "},"":{"ha":778,"x_min":134,"x_max":1122,"o":"m 739 40 l 725 0 q 653 -11 680 -11 q 614 -10 626 -11 q 573 -6 602 -9 q 526 -1 545 -3 q 490 0 507 0 q 439 -2 468 0 q 363 -9 410 -4 l 375 25 q 454 60 438 41 q 509 222 471 78 q 547 412 547 367 q 512 598 547 503 q 424 753 477 694 q 281 684 325 716 q 212 605 237 652 q 186 523 186 557 q 217 458 186 489 q 243 413 243 433 q 233 384 243 395 q 207 372 222 372 q 160 399 179 372 q 134 489 134 437 q 176 631 134 565 q 294 742 218 696 q 351 769 316 755 q 439 798 386 782 q 506 821 475 808 q 597 660 563 752 q 645 430 631 568 q 885 801 770 693 q 1072 909 999 909 q 1108 897 1095 909 q 1122 865 1122 884 q 1105 833 1122 846 q 1081 822 1097 826 q 1041 817 1065 817 q 1001 812 1019 817 q 968 798 982 807 q 912 754 942 783 q 848 683 882 726 q 712 473 781 602 q 610 210 646 347 q 572 32 576 77 q 603 28 588 29 q 635 26 617 26 q 684 29 662 26 q 739 40 707 32 m 631 1024 q 674 1005 655 1024 q 694 961 694 987 q 675 917 694 935 q 631 898 656 898 q 587 916 606 898 q 568 961 568 935 q 586 1006 568 987 q 631 1024 604 1024 m 827 1023 q 871 1005 853 1023 q 890 961 890 987 q 871 916 890 935 q 827 898 853 898 q 783 916 802 898 q 764 961 764 935 q 783 1004 764 985 q 827 1023 801 1023 z "},"":{"ha":305,"x_min":0,"x_max":0,"o":""},"":{"ha":389,"x_min":131,"x_max":389,"o":"m 315 404 q 272 424 290 404 q 253 474 253 444 q 274 544 253 519 q 327 568 295 568 q 371 550 353 568 q 389 503 389 531 q 364 428 389 460 q 315 404 346 404 m 279 327 l 319 327 q 276 25 297 178 q 255 -215 255 -127 q 249 -239 255 -234 q 210 -256 239 -249 q 146 -269 164 -269 q 131 -254 131 -269 q 132 -242 131 -246 q 136 -229 133 -239 l 196 -8 l 279 327 z "},"":{"ha":611,"x_min":83,"x_max":671,"o":"m 581 561 q 623 505 623 543 q 608 471 623 484 q 567 458 593 458 q 527 470 551 458 l 305 94 q 366 54 319 54 q 414 62 385 54 q 473 89 442 71 q 551 146 500 104 l 567 106 l 505 65 q 399 4 438 20 q 292 -20 340 -20 q 245 -9 269 -20 l 127 -210 l 83 -210 l 215 14 q 180 135 180 57 q 238 351 180 237 q 378 524 296 465 q 522 570 441 570 q 541 569 534 570 l 627 715 l 671 715 l 581 561 m 290 142 l 493 488 q 445 503 465 503 q 381 475 412 503 q 318 353 350 448 q 286 183 286 258 q 290 142 286 168 z "},"":{"ha":667,"x_min":71,"x_max":775,"o":"m 541 374 l 525 332 l 368 332 q 264 76 325 168 q 327 83 303 83 q 439 71 364 83 q 544 58 514 58 q 607 84 582 58 q 644 176 631 111 l 681 176 q 668 88 681 125 q 634 26 656 50 q 524 -17 596 -17 q 470 -15 493 -17 q 435 -12 448 -13 q 252 4 292 4 q 71 -19 182 4 l 75 19 q 165 52 142 37 q 201 94 187 67 q 235 216 214 121 q 264 332 241 248 l 148 332 l 160 374 l 275 374 q 465 750 345 623 q 673 844 554 844 q 753 830 730 844 q 775 794 775 817 q 763 765 775 777 q 734 754 751 754 q 709 758 727 754 q 594 777 635 777 q 486 697 527 777 q 378 374 427 582 l 541 374 z "},"":{"ha":833,"x_min":246,"x_max":845,"o":"m 246 153 l 313 218 q 266 306 280 264 q 252 396 252 349 q 255 448 252 425 q 267 497 258 471 q 313 578 279 533 l 246 644 l 297 696 l 364 629 q 452 677 406 661 q 549 693 498 693 q 637 679 594 693 q 728 629 681 665 l 795 696 l 845 644 l 779 578 q 829 489 814 532 q 840 445 836 469 q 844 397 844 422 q 829 305 844 347 q 779 218 814 264 l 845 153 l 795 100 l 728 167 q 639 116 684 132 q 548 100 594 100 q 454 115 497 100 q 364 167 412 130 l 297 100 l 246 153 m 547 614 q 394 550 458 614 q 331 397 331 487 q 394 243 331 308 q 547 179 458 179 q 701 243 637 179 q 764 397 764 307 q 701 550 764 486 q 547 614 637 614 z "},"":{"ha":1000,"x_min":245,"x_max":1234,"o":"m 659 421 q 649 512 659 469 q 620 607 640 555 q 535 753 586 696 q 392 684 436 716 q 323 605 349 652 q 297 523 297 557 q 328 458 297 489 q 355 413 355 433 q 344 384 355 395 q 318 372 334 372 q 271 399 290 372 q 245 489 245 437 q 287 631 245 565 q 405 742 329 696 q 462 769 427 755 q 550 798 497 782 q 617 821 587 808 q 708 660 674 752 q 756 430 743 568 q 996 801 882 693 q 1183 909 1110 909 q 1220 897 1206 909 q 1234 865 1234 884 q 1217 833 1234 846 q 1192 822 1208 826 q 1152 817 1176 817 q 1108 811 1128 817 q 1069 792 1088 804 q 939 657 1013 756 q 797 421 865 557 l 995 421 l 984 382 l 779 382 q 752 311 768 359 l 966 311 l 956 270 l 737 270 q 683 32 696 134 q 714 28 699 29 q 746 26 728 26 q 795 29 773 26 q 850 40 818 32 l 836 0 q 764 -11 791 -11 q 725 -10 737 -11 q 684 -6 713 -9 q 637 -1 656 -3 q 602 0 618 0 q 550 -2 579 0 q 475 -9 521 -4 l 486 25 q 564 58 549 41 q 606 168 582 79 l 633 270 l 420 270 l 431 311 l 644 311 q 651 347 647 327 q 657 382 655 368 l 449 382 l 458 421 l 659 421 z "},"":{"ha":722,"x_min":452,"x_max":528,"o":"m 452 350 l 452 955 l 528 955 l 528 387 l 452 350 m 452 -338 l 452 229 l 528 267 l 528 -338 l 452 -338 z "},"":{"ha":583,"x_min":-41,"x_max":778,"o":"m 619 957 q 736 926 694 957 q 778 856 778 895 q 765 827 778 840 q 734 815 752 815 q 711 821 722 815 q 685 848 703 827 q 583 912 637 912 q 509 877 538 912 q 480 770 480 842 q 487 680 480 726 q 518 531 494 633 q 546 382 536 449 q 555 264 555 315 q 400 -131 555 22 q 134 -250 278 -250 q -2 -215 54 -250 q -41 -157 -41 -191 q -29 -126 -41 -138 q -3 -114 -18 -114 q 18 -118 8 -114 q 59 -148 28 -123 q 178 -202 129 -202 q 270 -151 233 -202 q 307 7 307 -100 q 303 86 307 58 q 275 237 300 115 q 242 423 248 378 q 236 511 236 468 q 293 735 236 626 q 435 901 350 845 q 619 957 521 957 m 450 865 q 338 705 372 789 q 304 519 304 621 q 309 431 304 477 q 336 275 315 385 q 361 123 357 165 q 366 35 366 81 q 327 -147 366 -48 q 450 23 413 -66 q 487 238 487 113 q 482 343 487 300 q 457 476 480 363 q 428 637 434 589 q 422 736 422 686 q 450 865 422 800 z "},"":{"ha":500,"x_min":298,"x_max":620,"o":"m 361 778 q 405 759 385 778 q 424 715 424 741 q 405 670 424 689 q 361 652 387 652 q 317 670 336 652 q 298 715 298 688 q 316 760 298 741 q 361 778 334 778 m 557 777 q 602 759 583 777 q 620 715 620 741 q 602 670 620 688 q 557 652 583 652 q 513 670 532 652 q 494 715 494 688 q 513 758 494 739 q 557 777 531 777 z "},"":{"ha":1027,"x_min":127,"x_max":1122,"o":"m 624 957 q 873 891 758 957 q 1055 709 987 825 q 1122 460 1122 593 q 1055 212 1122 327 q 873 30 989 96 q 624 -37 758 -37 q 376 29 490 -37 q 194 211 262 95 q 127 460 127 326 q 194 709 127 594 q 376 890 260 824 q 624 957 491 957 m 624 907 q 400 848 504 907 q 237 683 296 788 q 177 460 177 578 q 236 236 177 339 q 400 73 295 133 q 624 12 505 12 q 848 72 745 12 q 1011 236 951 132 q 1072 460 1072 341 q 1012 684 1072 581 q 848 847 953 787 q 624 907 743 907 m 862 769 l 876 579 l 849 579 q 771 699 825 659 q 644 739 718 739 q 530 708 579 739 q 454 618 481 677 q 426 475 426 558 q 487 264 426 334 q 650 195 547 195 q 862 305 783 195 l 887 292 q 627 155 793 155 q 404 242 494 155 q 313 456 313 330 q 409 678 313 587 q 651 770 505 770 q 704 765 681 770 q 777 744 727 761 q 802 739 790 740 q 835 769 823 739 l 862 769 z "},"":{"ha":639,"x_min":26,"x_max":743,"o":"m 698 550 l 663 550 q 670 658 670 625 q 642 740 670 709 q 566 770 614 770 q 435 716 490 770 q 380 595 380 663 q 395 530 380 559 q 463 449 410 501 q 587 303 557 357 q 618 199 618 249 q 573 57 618 125 q 440 -56 528 -11 q 254 -100 352 -100 q 92 -50 158 -100 q 26 56 26 0 q 43 105 26 85 q 83 125 60 125 q 121 106 104 125 q 140 55 130 97 q 166 -9 150 13 q 209 -43 180 -28 q 269 -56 237 -56 q 438 9 366 -56 q 511 154 511 74 q 509 181 511 168 q 502 208 507 193 q 469 269 494 235 q 393 350 452 291 q 321 428 338 405 q 290 488 301 457 q 279 551 279 519 q 320 674 279 612 q 428 774 361 736 q 578 811 495 811 q 682 798 622 811 l 743 788 q 721 707 730 748 q 698 550 712 666 m 106 -418 l 96 -383 q 172 -308 144 -346 q 189 -268 189 -283 q 176 -228 189 -254 q 163 -186 163 -202 q 178 -151 163 -166 q 212 -136 193 -136 q 250 -154 234 -136 q 267 -197 267 -172 q 250 -263 267 -226 q 201 -336 234 -301 q 106 -418 156 -385 z "},"":{"ha":472,"x_min":110,"x_max":565,"o":"m 377 279 q 437 179 394 256 q 477 90 465 127 q 486 56 486 66 q 466 36 486 36 q 437 63 450 36 q 285 282 412 123 l 416 401 l 491 473 l 513 499 q 547 525 533 525 q 559 519 553 525 q 565 507 564 515 q 562 492 565 499 q 492 402 554 478 q 377 279 452 353 m 202 279 q 262 179 219 256 q 302 90 288 130 q 310 56 310 66 q 290 36 310 36 q 262 63 275 36 q 110 282 237 123 l 241 401 l 316 473 l 338 499 q 372 525 358 525 q 385 519 378 525 q 390 507 389 515 q 387 492 390 499 q 317 402 379 478 q 202 279 277 353 z "},"":{"ha":833,"x_min":241,"x_max":842,"o":"m 842 553 l 842 244 l 765 244 l 765 476 l 241 476 l 241 553 l 842 553 z "},"":{"ha":389,"x_min":114,"x_max":446,"o":"m 132 312 l 446 312 l 429 245 l 114 245 l 132 312 z "},"":{"ha":1027,"x_min":127,"x_max":1122,"o":"m 624 957 q 873 891 758 957 q 1055 709 987 825 q 1122 460 1122 593 q 1055 212 1122 327 q 873 30 989 96 q 624 -37 758 -37 q 376 29 490 -37 q 194 211 262 95 q 127 460 127 326 q 194 709 127 594 q 376 890 260 824 q 624 957 491 957 m 624 907 q 400 848 504 907 q 237 683 296 788 q 177 460 177 578 q 236 236 177 339 q 400 73 295 133 q 624 12 505 12 q 848 72 745 12 q 1011 236 951 132 q 1072 460 1072 341 q 1012 684 1072 581 q 848 847 953 787 q 624 907 743 907 m 358 755 l 620 755 q 769 712 715 755 q 822 604 822 669 q 785 511 822 548 q 671 453 747 473 l 812 251 q 857 203 836 218 q 895 191 869 195 l 895 169 l 770 169 l 570 444 l 519 444 l 519 234 q 539 201 523 212 q 599 191 555 191 l 599 169 l 350 169 l 350 191 q 397 199 383 191 q 417 224 410 207 q 420 285 420 234 l 420 640 l 420 652 l 420 661 l 420 669 q 417 701 420 695 q 400 723 413 715 q 358 731 387 731 l 358 755 m 519 473 l 539 473 q 670 507 627 473 q 712 596 712 542 q 673 688 712 650 q 576 726 635 726 q 519 715 549 726 l 519 473 z "},"":{"ha":694,"x_min":197,"x_max":907,"o":"m 197 932 l 907 932 l 907 863 l 197 863 l 197 932 z "},"":{"ha":555,"x_min":281,"x_max":645,"o":"m 464 812 q 591 759 537 812 q 645 630 645 705 q 592 500 645 553 q 463 447 538 447 q 334 500 388 447 q 281 631 281 553 q 335 759 281 706 q 464 812 389 812 m 463 747 q 381 712 416 747 q 346 629 346 677 q 380 548 346 583 q 464 512 415 512 q 545 547 511 512 q 579 629 579 581 q 546 713 579 679 q 463 747 513 747 z "},"":{"ha":762,"x_min":167,"x_max":767,"o":"m 429 472 l 429 733 l 505 733 l 505 472 l 767 472 l 767 397 l 505 397 l 505 132 l 429 132 l 429 397 l 167 397 l 167 472 l 429 472 m 767 77 l 767 0 l 167 0 l 167 77 l 767 77 z "},"":{"ha":367,"x_min":123,"x_max":473,"o":"m 237 699 l 204 713 q 273 792 237 770 q 355 814 309 814 q 440 785 406 814 q 473 718 473 756 q 463 672 473 695 q 425 621 452 648 q 334 547 410 604 q 208 439 242 478 l 309 441 l 344 441 q 372 446 364 441 q 404 485 380 451 l 449 485 q 387 380 412 441 q 254 390 324 390 q 199 387 252 390 q 123 385 146 385 l 133 412 q 245 522 169 459 q 353 622 325 586 q 388 705 388 669 q 371 751 388 734 q 328 769 355 769 q 284 754 306 769 q 237 699 263 740 z "},"":{"ha":367,"x_min":132,"x_max":453,"o":"m 253 720 l 225 736 q 366 812 296 812 q 429 794 406 812 q 453 750 453 776 q 435 699 453 725 q 366 638 410 664 q 425 612 404 634 q 446 557 446 589 q 376 436 446 495 q 222 378 307 378 q 153 395 180 378 q 132 425 132 408 q 141 441 132 434 q 162 449 149 449 q 202 429 178 449 q 245 409 226 409 q 321 452 280 409 q 363 539 363 494 q 348 581 363 566 q 309 596 334 596 q 252 585 286 596 l 256 616 q 350 671 309 633 q 370 698 363 685 q 377 726 377 711 q 366 755 377 744 q 338 766 355 766 q 253 720 298 766 z "},"":{"ha":416,"x_min":315,"x_max":585,"o":"m 456 850 l 585 850 l 355 653 l 315 653 l 456 850 z "},"":{"ha":800,"x_min":110,"x_max":764,"o":"m 734 80 l 726 48 l 587 -9 l 576 -11 q 553 1 562 -11 q 542 44 542 18 q 543 64 542 58 q 547 90 543 71 q 471 26 503 46 q 400 -5 442 8 q 337 -18 357 -18 q 286 0 309 -18 q 242 66 263 18 q 230 -5 232 16 l 228 -92 q 207 -184 228 -157 q 155 -212 186 -212 q 122 -200 134 -212 q 110 -168 110 -189 q 137 -79 110 -142 q 221 136 195 57 q 285 356 252 231 l 330 535 l 436 535 l 353 202 q 340 131 340 152 q 361 89 340 107 q 414 72 382 72 q 479 86 447 72 q 559 143 511 100 l 659 535 l 764 535 l 667 149 q 664 129 665 140 q 663 103 663 117 q 668 79 663 85 q 690 73 674 73 q 710 74 701 73 q 734 80 719 75 z "},"":{"ha":694,"x_min":69,"x_max":789,"o":"m 652 873 l 709 873 l 690 794 l 789 794 l 776 750 l 678 750 l 590 399 l 727 399 l 714 352 l 576 352 l 501 58 q 211 -235 426 -235 q 106 -208 144 -235 q 69 -146 69 -181 q 82 -115 69 -130 q 111 -101 94 -101 q 161 -126 134 -101 q 203 -159 188 -151 q 230 -167 218 -164 q 254 -170 241 -170 q 327 -146 289 -170 q 395 -68 365 -122 q 452 86 424 -17 l 519 352 l 494 352 q 317 403 376 352 q 258 538 258 454 q 345 719 258 644 q 590 794 431 794 l 633 794 l 652 873 m 620 750 q 554 743 582 750 q 505 723 526 736 q 439 641 470 701 q 408 520 408 581 q 450 427 408 467 q 531 399 474 405 l 620 750 z "},"":{"ha":306,"x_min":192,"x_max":328,"o":"m 266 479 q 310 459 292 479 q 328 408 328 439 q 307 339 328 364 q 254 314 286 314 q 210 333 228 314 q 192 380 192 351 q 217 455 192 423 q 266 479 235 479 z "},"":{"ha":416,"x_min":98,"x_max":319,"o":"m 242 13 l 286 13 l 245 -64 q 300 -89 282 -68 q 319 -136 319 -109 q 262 -232 319 -183 q 98 -298 205 -280 l 111 -257 q 212 -212 174 -245 q 238 -161 238 -189 q 221 -124 238 -139 q 180 -110 205 -110 l 169 -111 l 242 13 z "},"":{"ha":367,"x_min":151,"x_max":441,"o":"m 441 818 l 411 712 l 380 605 l 355 510 q 333 425 333 435 q 336 417 333 418 q 406 407 339 415 l 395 382 q 269 390 305 390 q 215 388 243 390 q 151 380 188 386 l 161 407 q 243 427 233 419 q 262 461 252 434 q 315 635 294 547 l 332 701 q 336 724 336 716 q 330 730 336 730 q 247 699 321 730 l 235 725 q 339 769 302 749 q 416 818 376 788 l 441 818 z "},"":{"ha":444,"x_min":82,"x_max":542,"o":"m 416 571 q 509 548 476 571 q 542 494 542 524 q 528 462 542 476 q 494 448 514 448 q 472 454 481 448 q 445 483 463 460 q 379 527 412 527 q 330 506 351 527 q 309 452 309 484 q 322 398 309 425 q 391 314 336 372 q 466 162 466 235 q 405 37 466 91 q 248 -18 343 -18 q 128 15 168 -18 q 88 96 88 48 q 103 136 88 120 q 140 151 117 151 q 172 139 159 151 q 186 109 186 126 l 184 92 l 184 77 q 203 39 184 55 q 253 23 222 23 q 317 35 289 23 q 361 73 345 47 q 376 124 376 99 q 361 173 376 149 q 338 205 354 185 q 296 254 323 224 q 226 405 226 332 q 279 521 226 471 q 416 571 333 571 m 92 -418 l 82 -383 q 158 -308 130 -346 q 176 -268 176 -283 q 162 -228 176 -254 q 149 -186 149 -202 q 164 -151 149 -166 q 199 -136 179 -136 q 237 -154 220 -136 q 253 -197 253 -172 q 237 -263 253 -226 q 187 -336 220 -301 q 92 -418 142 -385 z "},"":{"ha":528,"x_min":81,"x_max":536,"o":"m 269 283 q 210 382 249 309 q 169 471 181 433 q 161 505 161 496 q 180 525 161 525 q 208 498 195 525 q 361 279 235 437 l 229 161 l 155 87 q 132 62 140 73 q 99 36 114 36 q 86 41 92 36 q 81 55 82 47 q 86 72 81 61 q 154 159 91 83 q 269 283 194 208 m 444 283 q 385 382 424 309 q 344 471 357 433 q 336 505 336 496 q 355 525 336 525 q 383 498 370 525 q 536 279 410 437 l 405 161 l 330 87 q 308 62 317 75 q 274 36 288 36 q 261 41 267 36 q 256 55 257 47 q 261 72 256 61 q 329 159 266 83 q 378 214 349 183 q 444 283 407 245 z "},"":{"ha":917,"x_min":204,"x_max":904,"o":"m 495 818 l 465 712 l 433 605 l 408 510 q 387 425 387 435 q 390 417 387 418 q 460 407 393 415 l 448 382 q 323 390 359 390 q 269 388 296 390 q 204 380 241 386 l 214 407 q 296 427 287 419 q 316 461 306 434 q 369 635 348 547 l 386 701 q 390 724 390 716 q 383 730 390 730 q 300 699 375 730 l 288 725 q 393 769 356 749 q 469 818 430 788 l 495 818 m 321 -5 l 420 166 l 668 618 q 770 812 726 724 l 825 803 q 785 736 819 793 q 745 669 757 689 q 707 601 726 635 l 490 204 q 433 97 463 156 q 378 -10 407 47 q 350 -7 368 -9 q 321 -5 332 -5 m 886 148 l 875 105 l 813 105 l 784 -10 l 711 -10 l 741 105 q 665 105 704 105 q 584 104 625 104 q 558 115 558 104 q 612 192 558 132 q 880 426 719 313 l 904 426 l 863 292 l 824 148 l 886 148 m 751 150 q 771 226 762 194 q 799 321 780 258 q 625 150 703 246 l 751 150 z "},"":{"ha":917,"x_min":201,"x_max":904,"o":"m 492 818 l 461 712 l 430 605 l 405 510 q 383 425 383 435 q 386 417 383 418 q 456 407 389 415 l 445 382 q 319 390 355 390 q 266 388 293 390 q 201 380 238 386 l 211 407 q 293 427 283 419 q 313 461 302 434 q 366 635 345 547 l 382 701 q 387 724 387 716 q 380 730 387 730 q 297 699 372 730 l 285 725 q 390 769 353 749 q 466 818 427 788 l 492 818 m 317 -5 l 417 166 l 665 618 q 767 812 722 724 l 821 803 q 781 736 815 793 q 742 669 753 689 q 704 601 723 635 l 486 204 q 429 97 460 156 q 375 -10 404 47 q 347 -7 365 -9 q 317 -5 328 -5 m 668 310 l 635 324 q 704 404 668 382 q 786 426 739 426 q 870 397 837 426 q 904 330 904 368 q 893 283 904 307 q 856 232 883 260 q 764 159 841 216 q 638 51 673 90 l 740 52 l 774 52 q 803 57 795 52 q 835 96 811 62 l 880 96 q 817 -9 843 52 q 685 1 755 1 q 630 -1 682 1 q 553 -4 577 -4 l 564 24 q 676 133 600 71 q 783 233 755 197 q 819 316 819 280 q 802 363 819 345 q 758 380 785 380 q 715 366 736 380 q 668 310 694 351 z "},"":{"ha":917,"x_min":193,"x_max":912,"o":"m 314 720 l 286 736 q 427 812 357 812 q 490 794 467 812 q 514 750 514 776 q 496 699 514 725 q 427 638 471 664 q 486 612 465 634 q 507 557 507 589 q 437 436 507 495 q 283 378 368 378 q 214 395 241 378 q 193 425 193 408 q 202 441 193 434 q 223 449 210 449 q 263 429 239 449 q 306 409 287 409 q 382 452 341 409 q 424 539 424 494 q 409 581 424 566 q 370 596 395 596 q 313 585 347 596 l 317 616 q 411 671 370 633 q 431 698 425 685 q 438 726 438 711 q 427 755 438 744 q 399 766 416 766 q 314 720 359 766 m 328 -5 l 428 166 l 675 618 q 778 812 733 724 l 832 803 q 792 736 826 793 q 753 669 764 689 q 715 601 734 635 l 497 204 q 440 97 471 156 q 386 -10 414 47 q 357 -7 376 -9 q 328 -5 339 -5 m 894 148 l 883 105 l 821 105 l 792 -10 l 720 -10 l 749 105 q 673 105 712 105 q 592 104 633 104 q 566 115 566 104 q 620 192 566 132 q 888 426 727 313 l 912 426 l 871 292 l 832 148 l 894 148 m 759 150 q 779 226 770 194 q 807 321 788 258 q 633 150 711 246 l 759 150 z "},"":{"ha":555,"x_min":90,"x_max":536,"o":"m 463 406 q 418 427 435 406 q 400 476 400 447 q 421 546 400 521 q 474 570 441 570 q 518 551 500 570 q 536 505 536 532 q 511 430 536 462 q 463 406 492 406 m 427 330 l 471 330 q 457 219 465 261 q 439 158 450 178 q 380 117 427 132 q 196 21 244 72 q 148 -90 148 -31 q 174 -168 148 -140 q 237 -196 199 -196 q 320 -159 270 -196 q 337 -147 323 -157 q 347 -141 345 -142 q 365 -137 355 -137 q 394 -150 380 -137 q 407 -179 407 -162 q 372 -235 407 -208 q 286 -261 338 -261 q 147 -201 203 -261 q 90 -50 90 -140 q 155 115 90 44 q 306 203 195 160 q 402 248 389 234 q 427 330 415 262 z "},"":{"ha":861,"x_min":-71,"x_max":881,"o":"m 881 30 l 874 -9 l 831 -11 q 768 -7 806 -11 l 687 0 q 600 -9 656 0 q 635 102 619 43 q 656 245 644 138 q 538 243 626 245 q 410 241 450 241 q 158 -89 239 -21 q 5 -157 77 -157 q -52 -142 -33 -157 q -71 -104 -71 -127 q -60 -75 -71 -87 q -33 -64 -50 -64 q -22 -64 -28 -64 q -7 -67 -16 -65 q 47 -77 35 -77 q 148 -25 92 -77 q 259 105 192 16 q 412 328 326 193 q 733 770 611 632 q 524 741 567 755 q 438 687 467 723 q 410 614 410 651 q 419 577 410 601 q 429 543 429 554 q 417 516 429 528 q 389 505 406 505 q 352 522 367 505 q 338 574 338 539 q 363 668 338 623 q 436 744 389 713 q 555 792 483 774 q 684 808 587 799 q 737 811 711 808 q 785 821 764 814 q 846 855 817 829 q 817 709 826 774 l 764 317 l 733 37 q 823 24 786 24 q 881 30 849 24 m 663 295 q 728 697 695 568 l 621 553 l 447 295 q 532 294 492 295 q 608 293 572 294 l 663 295 m 652 1095 l 766 1095 l 840 899 l 800 899 l 652 1095 z "},"":{"ha":861,"x_min":-71,"x_max":1004,"o":"m 881 30 l 874 -9 l 831 -11 q 768 -7 806 -11 l 687 0 q 600 -9 656 0 q 635 102 619 43 q 656 245 644 138 q 538 243 626 245 q 410 241 450 241 q 158 -89 239 -21 q 5 -157 77 -157 q -52 -142 -33 -157 q -71 -104 -71 -127 q -60 -75 -71 -87 q -33 -64 -50 -64 q -22 -64 -28 -64 q -7 -67 -16 -65 q 47 -77 35 -77 q 148 -25 92 -77 q 259 105 192 16 q 412 328 326 193 q 733 770 611 632 q 524 741 567 755 q 438 687 467 723 q 410 614 410 651 q 419 577 410 601 q 429 543 429 554 q 417 516 429 528 q 389 505 406 505 q 352 522 367 505 q 338 574 338 539 q 363 668 338 623 q 436 744 389 713 q 555 792 483 774 q 684 808 587 799 q 737 811 711 808 q 785 821 764 814 q 846 855 817 829 q 817 709 826 774 l 764 317 l 733 37 q 823 24 786 24 q 881 30 849 24 m 663 295 q 728 697 695 568 l 621 553 l 447 295 q 532 294 492 295 q 608 293 572 294 l 663 295 m 875 1095 l 1004 1095 l 774 899 l 734 899 l 875 1095 z "},"":{"ha":861,"x_min":-71,"x_max":937,"o":"m 881 30 l 874 -9 l 831 -11 q 768 -7 806 -11 l 687 0 q 600 -9 656 0 q 635 102 619 43 q 656 245 644 138 q 538 243 626 245 q 410 241 450 241 q 158 -89 239 -21 q 5 -157 77 -157 q -52 -142 -33 -157 q -71 -104 -71 -127 q -60 -75 -71 -87 q -33 -64 -50 -64 q -22 -64 -28 -64 q -7 -67 -16 -65 q 47 -77 35 -77 q 148 -25 92 -77 q 259 105 192 16 q 412 328 326 193 q 733 770 611 632 q 524 741 567 755 q 438 687 467 723 q 410 614 410 651 q 419 577 410 601 q 429 543 429 554 q 417 516 429 528 q 389 505 406 505 q 352 522 367 505 q 338 574 338 539 q 363 668 338 623 q 436 744 389 713 q 555 792 483 774 q 684 808 587 799 q 737 811 711 808 q 785 821 764 814 q 846 855 817 829 q 817 709 826 774 l 764 317 l 733 37 q 823 24 786 24 q 881 30 849 24 m 663 295 q 728 697 695 568 l 621 553 l 447 295 q 532 294 492 295 q 608 293 572 294 l 663 295 m 785 1096 l 888 1096 l 937 899 l 899 899 l 828 1023 l 646 899 l 603 899 l 785 1096 z "},"":{"ha":861,"x_min":-71,"x_max":1027,"o":"m 881 30 l 874 -9 l 831 -11 q 768 -7 806 -11 l 687 0 q 600 -9 656 0 q 635 102 619 43 q 656 245 644 138 q 538 243 626 245 q 410 241 450 241 q 158 -89 239 -21 q 5 -157 77 -157 q -52 -142 -33 -157 q -71 -104 -71 -127 q -60 -75 -71 -87 q -33 -64 -50 -64 q -22 -64 -28 -64 q -7 -67 -16 -65 q 47 -77 35 -77 q 148 -25 92 -77 q 259 105 192 16 q 412 328 326 193 q 733 770 611 632 q 524 741 567 755 q 438 687 467 723 q 410 614 410 651 q 419 577 410 601 q 429 543 429 554 q 417 516 429 528 q 389 505 406 505 q 352 522 367 505 q 338 574 338 539 q 363 668 338 623 q 436 744 389 713 q 555 792 483 774 q 684 808 587 799 q 737 811 711 808 q 785 821 764 814 q 846 855 817 829 q 817 709 826 774 l 764 317 l 733 37 q 823 24 786 24 q 881 30 849 24 m 663 295 q 728 697 695 568 l 621 553 l 447 295 q 532 294 492 295 q 608 293 572 294 l 663 295 m 1027 1089 q 938 982 1002 1027 q 824 937 875 937 q 718 975 754 937 q 682 1089 682 1013 l 722 1089 q 828 999 744 999 q 989 1089 925 999 l 1027 1089 z "},"":{"ha":861,"x_min":-71,"x_max":964,"o":"m 881 30 l 874 -9 l 831 -11 q 768 -7 806 -11 l 687 0 q 600 -9 656 0 q 635 102 619 43 q 656 245 644 138 q 538 243 626 245 q 410 241 450 241 q 158 -89 239 -21 q 5 -157 77 -157 q -52 -142 -33 -157 q -71 -104 -71 -127 q -60 -75 -71 -87 q -33 -64 -50 -64 q -22 -64 -28 -64 q -7 -67 -16 -65 q 47 -77 35 -77 q 148 -25 92 -77 q 259 105 192 16 q 412 328 326 193 q 733 770 611 632 q 524 741 567 755 q 438 687 467 723 q 410 614 410 651 q 419 577 410 601 q 429 543 429 554 q 417 516 429 528 q 389 505 406 505 q 352 522 367 505 q 338 574 338 539 q 363 668 338 623 q 436 744 389 713 q 555 792 483 774 q 684 808 587 799 q 737 811 711 808 q 785 821 764 814 q 846 855 817 829 q 817 709 826 774 l 764 317 l 733 37 q 823 24 786 24 q 881 30 849 24 m 663 295 q 728 697 695 568 l 621 553 l 447 295 q 532 294 492 295 q 608 293 572 294 l 663 295 m 705 1024 q 749 1005 730 1024 q 768 961 768 987 q 750 917 768 935 q 705 898 731 898 q 661 916 680 898 q 642 961 642 935 q 661 1006 642 987 q 705 1024 679 1024 m 901 1023 q 946 1005 928 1023 q 964 961 964 987 q 946 916 964 935 q 901 898 928 898 q 858 916 877 898 q 839 961 839 935 q 857 1004 839 985 q 901 1023 876 1023 z "},"":{"ha":861,"x_min":-71,"x_max":892,"o":"m 881 30 l 874 -9 l 831 -11 q 768 -7 806 -11 l 687 0 q 600 -9 656 0 q 635 102 619 43 q 656 245 644 138 q 538 243 626 245 q 410 241 450 241 q 158 -89 239 -21 q 5 -157 77 -157 q -52 -142 -33 -157 q -71 -104 -71 -127 q -60 -75 -71 -87 q -33 -64 -50 -64 q -22 -64 -28 -64 q -7 -67 -16 -65 q 47 -77 35 -77 q 148 -25 92 -77 q 259 105 192 16 q 412 328 326 193 q 733 770 611 632 q 524 741 567 755 q 438 687 467 723 q 410 614 410 651 q 419 577 410 601 q 429 543 429 554 q 417 516 429 528 q 389 505 406 505 q 352 522 367 505 q 338 574 338 539 q 363 668 338 623 q 436 744 389 713 q 555 792 483 774 q 684 808 587 799 q 737 811 711 808 q 785 821 764 814 q 846 855 817 829 q 817 709 826 774 l 764 317 l 733 37 q 823 24 786 24 q 881 30 849 24 m 663 295 q 728 697 695 568 l 621 553 l 447 295 q 532 294 492 295 q 608 293 572 294 l 663 295 m 774 1114 q 858 1079 823 1114 q 892 996 892 1044 q 858 912 892 947 q 774 877 823 877 q 691 911 726 877 q 656 996 656 946 q 690 1079 656 1044 q 728 1105 708 1097 q 774 1114 749 1114 m 774 1067 q 724 1046 745 1067 q 703 996 703 1025 q 724 945 703 966 q 774 924 745 924 q 824 945 803 924 q 845 996 845 966 q 824 1045 845 1024 q 774 1067 803 1067 z "},"":{"ha":1027,"x_min":-41,"x_max":1096,"o":"m 1059 636 l 1024 636 q 1028 670 1026 651 q 1031 702 1031 689 q 1014 745 1031 734 q 907 755 997 755 q 789 751 835 755 l 713 452 l 798 452 q 885 460 873 452 q 914 522 898 468 l 950 522 q 903 323 913 410 l 869 323 q 876 378 876 364 q 860 402 876 394 q 789 411 844 411 l 702 411 l 640 170 q 623 101 631 132 q 608 53 614 71 q 680 63 650 60 q 732 66 710 66 q 831 57 767 66 q 967 45 916 45 q 1014 55 999 45 q 1029 81 1029 66 q 1020 108 1029 93 q 999 158 999 144 q 1011 185 999 174 q 1040 197 1023 197 q 1077 178 1061 197 q 1092 128 1092 160 q 1043 24 1092 66 q 906 -17 994 -17 q 844 -14 882 -17 q 755 -5 806 -12 q 613 5 664 5 q 418 -16 513 5 l 431 22 l 449 26 q 488 42 477 33 q 511 79 498 51 q 543 187 517 94 q 552 225 547 205 q 566 271 557 245 l 359 271 l 218 47 q 105 -81 161 -43 q 26 -110 64 -110 q -23 -94 -5 -110 q -41 -58 -41 -79 q -30 -32 -41 -44 q -1 -20 -18 -20 q 30 -27 12 -20 q 69 -40 60 -39 q 128 -6 97 -40 q 315 286 178 50 q 391 417 367 376 q 457 526 416 458 q 509 608 491 581 q 603 732 557 680 q 623 760 623 755 q 600 770 623 770 q 557 766 578 770 q 507 754 535 763 l 513 789 q 555 799 536 795 q 594 802 574 802 q 633 801 603 802 q 677 799 663 799 q 774 796 702 799 q 895 793 846 793 q 949 795 913 793 q 1002 798 985 798 q 1038 800 1022 798 q 1096 810 1053 802 q 1072 736 1078 765 q 1059 636 1066 707 m 579 323 l 625 509 l 682 759 q 387 323 527 588 q 478 319 432 319 q 527 321 494 319 q 579 323 560 323 z "},"":{"ha":722,"x_min":133,"x_max":852,"o":"m 808 518 l 772 518 l 775 603 q 735 736 775 699 q 635 774 696 774 q 468 708 555 774 q 319 504 382 643 q 256 219 256 365 q 314 2 256 77 q 460 -74 372 -74 q 677 68 578 -74 q 699 83 688 83 q 713 77 706 83 q 720 64 720 71 q 675 -7 720 45 q 561 -97 630 -60 q 426 -133 492 -133 q 277 -92 345 -133 q 171 28 210 -50 q 133 212 133 106 q 210 507 133 359 q 405 734 288 654 q 633 814 522 814 q 712 806 674 814 q 852 759 726 802 q 820 638 831 699 q 808 518 808 577 m 403 -110 l 447 -110 l 406 -186 q 461 -212 443 -191 q 479 -259 479 -232 q 422 -354 479 -306 q 259 -420 366 -403 l 272 -380 q 372 -334 334 -368 q 399 -283 399 -312 q 382 -247 399 -262 q 340 -233 366 -233 l 330 -233 l 403 -110 z "},"":{"ha":861,"x_min":92,"x_max":924,"o":"m 890 650 l 854 650 q 858 681 857 667 q 859 705 859 694 q 836 741 859 732 q 665 749 812 749 l 566 749 l 491 449 l 631 449 q 713 459 699 449 q 735 508 728 469 l 774 508 q 735 328 752 425 l 701 328 l 704 377 q 694 395 704 385 q 674 403 691 400 q 620 406 656 406 l 481 406 q 420 202 451 292 q 355 45 389 112 q 467 64 420 64 q 557 58 509 64 q 668 38 606 52 q 751 24 729 24 q 799 39 781 24 q 818 73 818 54 q 809 109 818 84 q 804 140 804 126 q 816 168 804 155 q 846 180 828 180 q 881 164 867 180 q 895 121 895 148 q 844 20 895 64 q 711 -24 793 -24 q 602 -16 663 -24 q 379 0 456 0 q 144 -16 280 0 l 155 21 q 249 53 234 43 q 273 85 263 63 q 358 344 305 147 q 463 753 410 541 q 310 714 382 753 q 196 614 237 675 q 155 483 155 552 q 156 461 155 473 q 161 430 156 449 q 187 371 167 411 q 200 332 200 347 q 187 306 200 318 q 157 294 174 294 q 115 321 131 294 q 92 426 92 361 q 199 681 92 568 q 513 795 307 795 l 746 795 q 924 810 868 795 q 890 650 897 697 m 570 1095 l 684 1095 l 758 899 l 718 899 l 570 1095 z "},"":{"ha":861,"x_min":92,"x_max":924,"o":"m 890 650 l 854 650 q 858 681 857 667 q 859 705 859 694 q 836 741 859 732 q 665 749 812 749 l 566 749 l 491 449 l 631 449 q 713 459 699 449 q 735 508 728 469 l 774 508 q 735 328 752 425 l 701 328 l 704 377 q 694 395 704 385 q 674 403 691 400 q 620 406 656 406 l 481 406 q 420 202 451 292 q 355 45 389 112 q 467 64 420 64 q 557 58 509 64 q 668 38 606 52 q 751 24 729 24 q 799 39 781 24 q 818 73 818 54 q 809 109 818 84 q 804 140 804 126 q 816 168 804 155 q 846 180 828 180 q 881 164 867 180 q 895 121 895 148 q 844 20 895 64 q 711 -24 793 -24 q 602 -16 663 -24 q 379 0 456 0 q 144 -16 280 0 l 155 21 q 249 53 234 43 q 273 85 263 63 q 358 344 305 147 q 463 753 410 541 q 310 714 382 753 q 196 614 237 675 q 155 483 155 552 q 156 461 155 473 q 161 430 156 449 q 187 371 167 411 q 200 332 200 347 q 187 306 200 318 q 157 294 174 294 q 115 321 131 294 q 92 426 92 361 q 199 681 92 568 q 513 795 307 795 l 746 795 q 924 810 868 795 q 890 650 897 697 m 760 1095 l 889 1095 l 659 899 l 619 899 l 760 1095 z "},"":{"ha":861,"x_min":92,"x_max":924,"o":"m 890 650 l 854 650 q 858 681 857 667 q 859 705 859 694 q 836 741 859 732 q 665 749 812 749 l 566 749 l 491 449 l 631 449 q 713 459 699 449 q 735 508 728 469 l 774 508 q 735 328 752 425 l 701 328 l 704 377 q 694 395 704 385 q 674 403 691 400 q 620 406 656 406 l 481 406 q 420 202 451 292 q 355 45 389 112 q 467 64 420 64 q 557 58 509 64 q 668 38 606 52 q 751 24 729 24 q 799 39 781 24 q 818 73 818 54 q 809 109 818 84 q 804 140 804 126 q 816 168 804 155 q 846 180 828 180 q 881 164 867 180 q 895 121 895 148 q 844 20 895 64 q 711 -24 793 -24 q 602 -16 663 -24 q 379 0 456 0 q 144 -16 280 0 l 155 21 q 249 53 234 43 q 273 85 263 63 q 358 344 305 147 q 463 753 410 541 q 310 714 382 753 q 196 614 237 675 q 155 483 155 552 q 156 461 155 473 q 161 430 156 449 q 187 371 167 411 q 200 332 200 347 q 187 306 200 318 q 157 294 174 294 q 115 321 131 294 q 92 426 92 361 q 199 681 92 568 q 513 795 307 795 l 746 795 q 924 810 868 795 q 890 650 897 697 m 703 1096 l 806 1096 l 855 899 l 817 899 l 746 1023 l 564 899 l 521 899 l 703 1096 z "},"":{"ha":861,"x_min":92,"x_max":924,"o":"m 890 650 l 854 650 q 858 681 857 667 q 859 705 859 694 q 836 741 859 732 q 665 749 812 749 l 566 749 l 491 449 l 631 449 q 713 459 699 449 q 735 508 728 469 l 774 508 q 735 328 752 425 l 701 328 l 704 377 q 694 395 704 385 q 674 403 691 400 q 620 406 656 406 l 481 406 q 420 202 451 292 q 355 45 389 112 q 467 64 420 64 q 557 58 509 64 q 668 38 606 52 q 751 24 729 24 q 799 39 781 24 q 818 73 818 54 q 809 109 818 84 q 804 140 804 126 q 816 168 804 155 q 846 180 828 180 q 881 164 867 180 q 895 121 895 148 q 844 20 895 64 q 711 -24 793 -24 q 602 -16 663 -24 q 379 0 456 0 q 144 -16 280 0 l 155 21 q 249 53 234 43 q 273 85 263 63 q 358 344 305 147 q 463 753 410 541 q 310 714 382 753 q 196 614 237 675 q 155 483 155 552 q 156 461 155 473 q 161 430 156 449 q 187 371 167 411 q 200 332 200 347 q 187 306 200 318 q 157 294 174 294 q 115 321 131 294 q 92 426 92 361 q 199 681 92 568 q 513 795 307 795 l 746 795 q 924 810 868 795 q 890 650 897 697 m 599 1024 q 643 1005 623 1024 q 662 961 662 987 q 643 917 662 935 q 599 898 625 898 q 555 916 574 898 q 536 961 536 935 q 554 1006 536 987 q 599 1024 572 1024 m 795 1023 q 840 1005 821 1023 q 858 961 858 987 q 840 916 858 935 q 795 898 821 898 q 751 916 770 898 q 732 961 732 935 q 751 1004 732 985 q 795 1023 769 1023 z "},"":{"ha":528,"x_min":94,"x_max":658,"o":"m 658 802 l 646 766 q 584 761 609 766 q 544 747 559 755 q 517 718 529 738 q 442 459 505 693 l 338 37 q 391 26 359 30 q 458 23 423 23 l 448 -9 q 401 -7 426 -9 q 361 -4 377 -5 q 252 0 314 0 q 94 -13 165 0 l 102 23 q 215 53 177 35 q 230 64 224 57 q 252 114 239 75 q 333 416 264 153 l 416 751 q 362 748 389 751 q 301 738 334 745 l 314 775 q 364 785 343 783 q 405 788 385 787 q 507 791 453 791 q 591 794 558 791 q 658 802 625 797 m 404 1095 l 517 1095 l 592 899 l 551 899 l 404 1095 z "},"":{"ha":528,"x_min":94,"x_max":722,"o":"m 658 802 l 646 766 q 584 761 609 766 q 544 747 559 755 q 517 718 529 738 q 442 459 505 693 l 338 37 q 391 26 359 30 q 458 23 423 23 l 448 -9 q 401 -7 426 -9 q 361 -4 377 -5 q 252 0 314 0 q 94 -13 165 0 l 102 23 q 215 53 177 35 q 230 64 224 57 q 252 114 239 75 q 333 416 264 153 l 416 751 q 362 748 389 751 q 301 738 334 745 l 314 775 q 364 785 343 783 q 405 788 385 787 q 507 791 453 791 q 591 794 558 791 q 658 802 625 797 m 593 1095 l 722 1095 l 492 899 l 452 899 l 593 1095 z "},"":{"ha":528,"x_min":94,"x_max":688,"o":"m 658 802 l 646 766 q 584 761 609 766 q 544 747 559 755 q 517 718 529 738 q 442 459 505 693 l 338 37 q 391 26 359 30 q 458 23 423 23 l 448 -9 q 401 -7 426 -9 q 361 -4 377 -5 q 252 0 314 0 q 94 -13 165 0 l 102 23 q 215 53 177 35 q 230 64 224 57 q 252 114 239 75 q 333 416 264 153 l 416 751 q 362 748 389 751 q 301 738 334 745 l 314 775 q 364 785 343 783 q 405 788 385 787 q 507 791 453 791 q 591 794 558 791 q 658 802 625 797 m 536 1096 l 639 1096 l 688 899 l 650 899 l 579 1023 l 397 899 l 354 899 l 536 1096 z "},"":{"ha":528,"x_min":94,"x_max":675,"o":"m 658 802 l 646 766 q 584 761 609 766 q 544 747 559 755 q 517 718 529 738 q 442 459 505 693 l 338 37 q 391 26 359 30 q 458 23 423 23 l 448 -9 q 401 -7 426 -9 q 361 -4 377 -5 q 252 0 314 0 q 94 -13 165 0 l 102 23 q 215 53 177 35 q 230 64 224 57 q 252 114 239 75 q 333 416 264 153 l 416 751 q 362 748 389 751 q 301 738 334 745 l 314 775 q 364 785 343 783 q 405 788 385 787 q 507 791 453 791 q 591 794 558 791 q 658 802 625 797 m 416 1024 q 459 1005 440 1024 q 479 961 479 987 q 460 917 479 935 q 416 898 441 898 q 372 916 391 898 q 353 961 353 935 q 371 1006 353 987 q 416 1024 389 1024 m 612 1023 q 656 1005 638 1023 q 675 961 675 987 q 656 916 675 935 q 612 898 638 898 q 568 916 587 898 q 549 961 549 935 q 568 1004 549 985 q 612 1023 586 1023 z "},"":{"ha":972,"x_min":96,"x_max":1044,"o":"m 435 413 l 456 498 q 470 557 462 524 q 482 605 478 591 q 486 631 486 619 q 479 648 486 641 q 460 654 472 654 l 441 652 l 448 682 q 528 690 481 682 q 622 711 558 696 q 570 541 582 587 l 541 413 l 783 413 l 772 370 l 530 370 q 471 165 503 253 q 417 42 438 78 q 520 31 477 31 q 726 80 638 31 q 866 226 814 130 q 919 437 919 322 q 831 680 919 587 q 730 749 787 726 q 600 772 673 772 q 374 715 481 772 q 205 563 267 658 q 143 380 143 469 q 219 254 143 295 q 247 233 239 242 q 254 212 254 224 q 240 182 254 195 q 212 169 227 169 q 142 218 177 169 q 96 353 96 283 q 165 578 96 469 q 359 752 235 687 q 635 817 484 817 q 933 716 823 817 q 1044 465 1044 616 q 967 208 1044 325 q 780 39 890 90 q 671 3 727 16 q 562 -10 616 -10 q 508 -7 556 -10 q 439 -3 460 -3 q 368 -1 414 -3 q 300 2 322 2 l 208 0 l 223 33 q 274 36 254 33 q 302 45 294 39 q 334 80 319 53 q 386 223 353 118 l 424 370 l 270 370 l 280 413 l 435 413 z "},"":{"ha":972,"x_min":60,"x_max":1258,"o":"m 621 817 l 640 737 q 692 544 668 622 q 824 171 717 466 l 865 336 q 917 546 905 510 q 989 729 954 669 q 1068 815 1025 789 q 1167 841 1112 841 q 1235 824 1211 841 q 1258 783 1258 808 q 1245 754 1258 767 q 1216 741 1232 741 q 1187 747 1203 741 l 1147 763 l 1120 766 q 1063 743 1088 766 q 971 546 1023 705 q 842 41 920 387 l 819 -60 q 715 181 743 109 q 631 422 677 280 l 557 657 q 535 550 550 617 q 493 382 519 483 q 434 161 444 191 q 368 20 404 69 q 290 -51 332 -28 q 196 -73 247 -73 q 92 -45 134 -73 q 60 9 60 -24 q 72 34 60 23 q 100 45 83 45 q 145 23 119 45 q 224 -17 189 -17 q 300 18 262 -17 q 408 239 355 70 q 469 470 439 342 q 528 758 498 597 q 436 744 502 758 q 325 706 370 731 q 255 641 279 681 q 231 558 231 602 q 237 514 231 538 q 243 498 239 506 q 255 477 248 490 q 271 439 271 452 q 259 412 271 424 q 229 400 247 400 q 185 427 205 400 q 167 509 167 453 q 212 663 167 600 q 335 760 258 726 q 524 799 383 779 q 621 817 578 806 m 989 1050 l 1027 1050 q 971 955 1009 987 q 893 922 934 922 q 860 925 873 922 q 834 933 846 928 q 810 945 819 941 l 762 966 q 732 970 747 970 q 702 961 714 970 q 673 922 689 951 l 636 922 q 687 1020 652 989 q 761 1050 722 1050 q 850 1027 791 1050 q 931 1004 908 1004 q 968 1017 952 1004 q 989 1050 985 1030 z "},"":{"ha":833,"x_min":142,"x_max":909,"o":"m 610 812 q 764 772 696 812 q 870 659 832 733 q 909 488 909 585 q 840 234 909 359 q 672 45 772 109 q 453 -18 573 -18 q 229 68 315 -18 q 142 297 142 155 q 211 559 142 433 q 379 748 279 685 q 610 812 479 812 m 560 763 q 416 716 482 763 q 308 571 350 670 q 265 342 265 473 q 331 113 265 194 q 495 31 396 31 q 634 79 569 31 q 741 231 699 127 q 784 469 784 334 q 719 685 784 606 q 560 763 654 763 m 492 1095 l 605 1095 l 680 899 l 639 899 l 492 1095 z "},"":{"ha":833,"x_min":142,"x_max":909,"o":"m 610 812 q 764 772 696 812 q 870 659 832 733 q 909 488 909 585 q 840 234 909 359 q 672 45 772 109 q 453 -18 573 -18 q 229 68 315 -18 q 142 297 142 155 q 211 559 142 433 q 379 748 279 685 q 610 812 479 812 m 560 763 q 416 716 482 763 q 308 571 350 670 q 265 342 265 473 q 331 113 265 194 q 495 31 396 31 q 634 79 569 31 q 741 231 699 127 q 784 469 784 334 q 719 685 784 606 q 560 763 654 763 m 746 1095 l 875 1095 l 645 899 l 605 899 l 746 1095 z "},"":{"ha":833,"x_min":142,"x_max":909,"o":"m 610 812 q 764 772 696 812 q 870 659 832 733 q 909 488 909 585 q 840 234 909 359 q 672 45 772 109 q 453 -18 573 -18 q 229 68 315 -18 q 142 297 142 155 q 211 559 142 433 q 379 748 279 685 q 610 812 479 812 m 560 763 q 416 716 482 763 q 308 571 350 670 q 265 342 265 473 q 331 113 265 194 q 495 31 396 31 q 634 79 569 31 q 741 231 699 127 q 784 469 784 334 q 719 685 784 606 q 560 763 654 763 m 632 1096 l 734 1096 l 784 899 l 745 899 l 675 1023 l 493 899 l 450 899 l 632 1096 z "},"":{"ha":833,"x_min":142,"x_max":909,"o":"m 610 812 q 764 772 696 812 q 870 659 832 733 q 909 488 909 585 q 840 234 909 359 q 672 45 772 109 q 453 -18 573 -18 q 229 68 315 -18 q 142 297 142 155 q 211 559 142 433 q 379 748 279 685 q 610 812 479 812 m 560 763 q 416 716 482 763 q 308 571 350 670 q 265 342 265 473 q 331 113 265 194 q 495 31 396 31 q 634 79 569 31 q 741 231 699 127 q 784 469 784 334 q 719 685 784 606 q 560 763 654 763 m 812 1050 l 851 1050 q 795 955 833 987 q 717 922 758 922 q 683 925 697 922 q 658 933 669 928 q 633 945 642 941 l 585 966 q 555 970 571 970 q 525 961 538 970 q 497 922 513 951 l 460 922 q 511 1020 476 989 q 585 1050 545 1050 q 673 1027 615 1050 q 755 1004 732 1004 q 792 1017 776 1004 q 812 1050 808 1030 z "},"":{"ha":833,"x_min":142,"x_max":909,"o":"m 610 812 q 764 772 696 812 q 870 659 832 733 q 909 488 909 585 q 840 234 909 359 q 672 45 772 109 q 453 -18 573 -18 q 229 68 315 -18 q 142 297 142 155 q 211 559 142 433 q 379 748 279 685 q 610 812 479 812 m 560 763 q 416 716 482 763 q 308 571 350 670 q 265 342 265 473 q 331 113 265 194 q 495 31 396 31 q 634 79 569 31 q 741 231 699 127 q 784 469 784 334 q 719 685 784 606 q 560 763 654 763 m 552 1024 q 596 1005 576 1024 q 615 961 615 987 q 596 917 615 935 q 552 898 578 898 q 508 916 527 898 q 489 961 489 935 q 507 1006 489 987 q 552 1024 526 1024 m 748 1023 q 793 1005 774 1023 q 811 961 811 987 q 793 916 811 935 q 748 898 774 898 q 705 916 724 898 q 686 961 686 935 q 704 1004 686 985 q 748 1023 722 1023 z "},"":{"ha":722,"x_min":233,"x_max":737,"o":"m 538 397 l 737 198 l 684 145 l 486 344 l 287 145 l 233 198 l 433 397 l 233 596 l 286 649 l 486 450 l 684 649 l 737 595 l 538 397 z "},"":{"ha":917,"x_min":178,"x_max":951,"o":"m 848 743 q 923 633 896 699 q 951 488 951 568 q 882 234 951 360 q 714 45 814 109 q 494 -18 615 -18 q 302 40 384 -18 l 210 -79 l 178 -54 l 271 67 q 184 302 184 155 q 251 557 184 432 q 419 748 318 683 q 637 812 519 812 q 814 768 736 812 l 892 869 l 924 841 l 848 743 m 343 160 l 755 692 q 599 763 693 763 q 457 716 524 763 q 349 571 391 669 q 307 342 307 472 q 343 160 307 234 m 781 657 l 366 121 q 440 56 395 80 q 537 31 486 31 q 674 79 609 31 q 783 230 740 126 q 826 465 826 334 q 781 657 826 583 z "},"":{"ha":1027,"x_min":161,"x_max":1107,"o":"m 629 810 q 494 503 562 692 q 448 282 448 371 q 495 129 448 184 q 615 73 543 73 q 743 107 683 73 q 889 243 822 152 q 999 463 956 335 q 1042 702 1042 591 q 1009 848 1042 780 l 989 890 l 987 911 q 999 944 987 930 q 1030 957 1012 957 q 1080 923 1061 957 q 1107 780 1107 877 q 1016 366 1107 571 q 806 73 926 161 q 556 -15 687 -15 q 393 56 450 -15 q 336 231 336 127 q 362 406 336 316 q 415 551 379 463 q 505 756 450 639 q 423 752 456 756 q 353 735 389 747 q 256 677 287 713 q 235 643 242 661 q 227 608 227 625 q 243 569 227 593 q 259 526 259 541 q 247 493 259 507 q 216 480 234 480 q 177 500 195 480 q 161 553 161 521 q 191 657 161 605 q 270 742 222 710 q 390 789 319 774 q 463 800 422 796 q 536 803 503 803 q 592 805 568 803 q 629 810 616 808 m 694 1095 l 808 1095 l 882 899 l 842 899 l 694 1095 z "},"":{"ha":1027,"x_min":161,"x_max":1107,"o":"m 629 810 q 494 503 562 692 q 448 282 448 371 q 495 129 448 184 q 615 73 543 73 q 743 107 683 73 q 889 243 822 152 q 999 463 956 335 q 1042 702 1042 591 q 1009 848 1042 780 l 989 890 l 987 911 q 999 944 987 930 q 1030 957 1012 957 q 1080 923 1061 957 q 1107 780 1107 877 q 1016 366 1107 571 q 806 73 926 161 q 556 -15 687 -15 q 393 56 450 -15 q 336 231 336 127 q 362 406 336 316 q 415 551 379 463 q 505 756 450 639 q 423 752 456 756 q 353 735 389 747 q 256 677 287 713 q 235 643 242 661 q 227 608 227 625 q 243 569 227 593 q 259 526 259 541 q 247 493 259 507 q 216 480 234 480 q 177 500 195 480 q 161 553 161 521 q 191 657 161 605 q 270 742 222 710 q 390 789 319 774 q 463 800 422 796 q 536 803 503 803 q 592 805 568 803 q 629 810 616 808 m 909 1095 l 1038 1095 l 808 899 l 768 899 l 909 1095 z "},"":{"ha":1027,"x_min":161,"x_max":1107,"o":"m 629 810 q 494 503 562 692 q 448 282 448 371 q 495 129 448 184 q 615 73 543 73 q 743 107 683 73 q 889 243 822 152 q 999 463 956 335 q 1042 702 1042 591 q 1009 848 1042 780 l 989 890 l 987 911 q 999 944 987 930 q 1030 957 1012 957 q 1080 923 1061 957 q 1107 780 1107 877 q 1016 366 1107 571 q 806 73 926 161 q 556 -15 687 -15 q 393 56 450 -15 q 336 231 336 127 q 362 406 336 316 q 415 551 379 463 q 505 756 450 639 q 423 752 456 756 q 353 735 389 747 q 256 677 287 713 q 235 643 242 661 q 227 608 227 625 q 243 569 227 593 q 259 526 259 541 q 247 493 259 507 q 216 480 234 480 q 177 500 195 480 q 161 553 161 521 q 191 657 161 605 q 270 742 222 710 q 390 789 319 774 q 463 800 422 796 q 536 803 503 803 q 592 805 568 803 q 629 810 616 808 m 786 1096 l 888 1096 l 938 899 l 899 899 l 829 1023 l 647 899 l 604 899 l 786 1096 z "},"":{"ha":1027,"x_min":161,"x_max":1107,"o":"m 629 810 q 494 503 562 692 q 448 282 448 371 q 495 129 448 184 q 615 73 543 73 q 743 107 683 73 q 889 243 822 152 q 999 463 956 335 q 1042 702 1042 591 q 1009 848 1042 780 l 989 890 l 987 911 q 999 944 987 930 q 1030 957 1012 957 q 1080 923 1061 957 q 1107 780 1107 877 q 1016 366 1107 571 q 806 73 926 161 q 556 -15 687 -15 q 393 56 450 -15 q 336 231 336 127 q 362 406 336 316 q 415 551 379 463 q 505 756 450 639 q 423 752 456 756 q 353 735 389 747 q 256 677 287 713 q 235 643 242 661 q 227 608 227 625 q 243 569 227 593 q 259 526 259 541 q 247 493 259 507 q 216 480 234 480 q 177 500 195 480 q 161 553 161 521 q 191 657 161 605 q 270 742 222 710 q 390 789 319 774 q 463 800 422 796 q 536 803 503 803 q 592 805 568 803 q 629 810 616 808 m 690 1024 q 734 1005 715 1024 q 753 961 753 987 q 735 917 753 935 q 690 898 716 898 q 646 916 665 898 q 627 961 627 935 q 646 1006 627 987 q 690 1024 664 1024 m 886 1023 q 931 1005 913 1023 q 949 961 949 987 q 931 916 949 935 q 886 898 913 898 q 843 916 862 898 q 824 961 824 935 q 842 1004 824 985 q 886 1023 861 1023 z "},"":{"ha":778,"x_min":134,"x_max":1122,"o":"m 739 40 l 725 0 q 653 -11 680 -11 q 614 -10 626 -11 q 573 -6 602 -9 q 526 -1 545 -3 q 490 0 507 0 q 439 -2 468 0 q 363 -9 410 -4 l 375 25 q 454 60 438 41 q 509 222 471 78 q 547 412 547 367 q 512 598 547 503 q 424 753 477 694 q 281 684 325 716 q 212 605 237 652 q 186 523 186 557 q 217 458 186 489 q 243 413 243 433 q 233 384 243 395 q 207 372 222 372 q 160 399 179 372 q 134 489 134 437 q 176 631 134 565 q 294 742 218 696 q 351 769 316 755 q 439 798 386 782 q 506 821 475 808 q 597 660 563 752 q 645 430 631 568 q 885 801 770 693 q 1072 909 999 909 q 1108 897 1095 909 q 1122 865 1122 884 q 1105 833 1122 846 q 1081 822 1097 826 q 1041 817 1065 817 q 1001 812 1019 817 q 968 798 982 807 q 912 754 942 783 q 848 683 882 726 q 712 473 781 602 q 610 210 646 347 q 572 32 576 77 q 603 28 588 29 q 635 26 617 26 q 684 29 662 26 q 739 40 707 32 m 800 1095 l 929 1095 l 699 899 l 659 899 l 800 1095 z "},"":{"ha":694,"x_min":110,"x_max":1014,"o":"m 672 39 l 663 0 q 586 -10 616 -10 q 492 -4 558 -10 q 446 -2 475 -4 q 403 0 416 0 q 263 -12 336 0 l 273 25 q 372 54 341 31 q 410 105 394 68 q 483 370 425 141 l 570 729 l 574 746 l 514 747 q 315 721 388 747 q 204 642 241 694 q 168 530 168 591 q 175 492 168 509 q 204 453 180 479 q 228 406 228 427 q 214 375 228 388 q 182 362 200 362 q 136 389 154 362 q 110 491 110 429 q 161 651 110 573 q 301 772 212 729 q 519 815 391 815 q 598 811 551 815 q 714 798 644 807 q 852 785 809 785 q 912 800 894 785 q 930 838 930 814 l 928 857 l 926 873 q 938 904 926 892 q 967 916 950 916 q 1001 901 987 916 q 1014 861 1014 886 q 958 773 1014 811 q 775 735 903 735 q 728 737 761 735 q 677 739 696 739 l 634 574 l 575 339 l 539 196 l 502 33 q 542 28 524 30 q 577 27 560 27 q 672 39 624 27 m 289 -418 l 279 -383 q 355 -308 327 -346 q 372 -268 372 -283 q 359 -228 372 -254 q 346 -186 346 -202 q 361 -151 346 -166 q 395 -136 376 -136 q 433 -154 417 -136 q 450 -197 450 -172 q 433 -263 450 -226 q 384 -336 417 -301 q 289 -418 339 -385 z "},"":{"ha":583,"x_min":-257,"x_max":709,"o":"m 98 -68 l 270 626 q 387 889 318 820 q 553 958 455 958 q 666 918 623 958 q 709 822 709 879 q 694 744 709 778 q 618 631 671 696 q 536 518 556 556 q 522 473 522 492 q 549 394 522 442 q 608 276 596 313 q 621 197 621 239 q 593 91 621 141 q 515 7 566 41 q 429 -17 479 -17 q 337 12 372 -17 q 303 81 303 40 q 318 126 303 110 q 356 142 334 142 q 389 130 376 142 q 402 99 402 117 q 399 81 402 92 l 397 62 q 410 38 397 48 q 445 28 422 28 q 512 58 485 28 q 540 131 540 87 q 490 284 540 194 l 439 380 q 431 414 431 399 q 444 468 431 441 q 513 572 456 494 q 627 818 627 728 q 604 890 627 865 q 541 915 581 915 q 453 869 490 915 q 379 675 416 823 l 235 83 q 71 -248 180 -142 q -167 -355 -37 -355 q -235 -339 -214 -355 q -257 -300 -257 -323 q -241 -263 -257 -277 q -189 -250 -224 -250 q -160 -252 -174 -250 q -129 -256 -146 -254 q -98 -260 -111 -258 q -72 -261 -85 -261 q 31 -233 2 -261 q 98 -68 65 -196 z "},"":{"ha":583,"x_min":102,"x_max":656,"o":"m 581 582 l 625 591 l 574 420 q 517 184 545 321 q 502 90 502 108 q 519 69 502 69 q 553 83 529 69 q 634 146 595 108 l 656 119 q 557 34 576 47 q 474 -10 515 5 q 424 -20 448 -20 q 398 -11 407 -20 q 389 12 389 -3 q 389 24 389 20 q 394 40 390 28 l 421 132 q 282 12 363 62 q 191 -19 232 -19 q 131 9 153 -19 q 102 106 102 45 q 141 266 102 178 q 243 426 179 354 q 379 532 308 498 q 520 558 435 558 q 547 558 533 558 q 564 555 559 556 l 581 582 m 496 478 q 435 486 458 486 q 329 453 373 486 q 244 332 284 420 q 205 157 205 244 q 220 91 205 111 q 261 71 236 71 q 361 121 309 71 q 440 267 414 171 l 496 478 m 350 849 l 463 849 l 538 652 l 497 652 l 350 849 z "},"":{"ha":583,"x_min":102,"x_max":668,"o":"m 581 582 l 625 591 l 574 420 q 517 184 545 321 q 502 90 502 108 q 519 69 502 69 q 553 83 529 69 q 634 146 595 108 l 656 119 q 557 34 576 47 q 474 -10 515 5 q 424 -20 448 -20 q 398 -11 407 -20 q 389 12 389 -3 q 389 24 389 20 q 394 40 390 28 l 421 132 q 282 12 363 62 q 191 -19 232 -19 q 131 9 153 -19 q 102 106 102 45 q 141 266 102 178 q 243 426 179 354 q 379 532 308 498 q 520 558 435 558 q 547 558 533 558 q 564 555 559 556 l 581 582 m 496 478 q 435 486 458 486 q 329 453 373 486 q 244 332 284 420 q 205 157 205 244 q 220 91 205 111 q 261 71 236 71 q 361 121 309 71 q 440 267 414 171 l 496 478 m 539 850 l 668 850 l 438 653 l 398 653 l 539 850 z "},"":{"ha":583,"x_min":102,"x_max":656,"o":"m 581 582 l 625 591 l 574 420 q 517 184 545 321 q 502 90 502 108 q 519 69 502 69 q 553 83 529 69 q 634 146 595 108 l 656 119 q 557 34 576 47 q 474 -10 515 5 q 424 -20 448 -20 q 398 -11 407 -20 q 389 12 389 -3 q 389 24 389 20 q 394 40 390 28 l 421 132 q 282 12 363 62 q 191 -19 232 -19 q 131 9 153 -19 q 102 106 102 45 q 141 266 102 178 q 243 426 179 354 q 379 532 308 498 q 520 558 435 558 q 547 558 533 558 q 564 555 559 556 l 581 582 m 496 478 q 435 486 458 486 q 329 453 373 486 q 244 332 284 420 q 205 157 205 244 q 220 91 205 111 q 261 71 236 71 q 361 121 309 71 q 440 267 414 171 l 496 478 m 482 850 l 585 850 l 634 653 l 595 653 l 525 777 l 343 653 l 300 653 l 482 850 z "},"":{"ha":583,"x_min":102,"x_max":715,"o":"m 581 582 l 625 591 l 574 420 q 517 184 545 321 q 502 90 502 108 q 519 69 502 69 q 553 83 529 69 q 634 146 595 108 l 656 119 q 557 34 576 47 q 474 -10 515 5 q 424 -20 448 -20 q 398 -11 407 -20 q 389 12 389 -3 q 389 24 389 20 q 394 40 390 28 l 421 132 q 282 12 363 62 q 191 -19 232 -19 q 131 9 153 -19 q 102 106 102 45 q 141 266 102 178 q 243 426 179 354 q 379 532 308 498 q 520 558 435 558 q 547 558 533 558 q 564 555 559 556 l 581 582 m 496 478 q 435 486 458 486 q 329 453 373 486 q 244 332 284 420 q 205 157 205 244 q 220 91 205 111 q 261 71 236 71 q 361 121 309 71 q 440 267 414 171 l 496 478 m 715 838 q 626 731 690 777 q 512 686 563 686 q 406 724 442 686 q 370 838 370 762 l 410 838 q 516 748 432 748 q 677 838 613 748 l 715 838 z "},"":{"ha":583,"x_min":102,"x_max":661,"o":"m 581 582 l 625 591 l 574 420 q 517 184 545 321 q 502 90 502 108 q 519 69 502 69 q 553 83 529 69 q 634 146 595 108 l 656 119 q 557 34 576 47 q 474 -10 515 5 q 424 -20 448 -20 q 398 -11 407 -20 q 389 12 389 -3 q 389 24 389 20 q 394 40 390 28 l 421 132 q 282 12 363 62 q 191 -19 232 -19 q 131 9 153 -19 q 102 106 102 45 q 141 266 102 178 q 243 426 179 354 q 379 532 308 498 q 520 558 435 558 q 547 558 533 558 q 564 555 559 556 l 581 582 m 496 478 q 435 486 458 486 q 329 453 373 486 q 244 332 284 420 q 205 157 205 244 q 220 91 205 111 q 261 71 236 71 q 361 121 309 71 q 440 267 414 171 l 496 478 m 402 778 q 446 759 427 778 q 465 715 465 741 q 447 670 465 689 q 402 652 428 652 q 358 670 377 652 q 339 715 339 688 q 357 760 339 741 q 402 778 376 778 m 598 777 q 643 759 625 777 q 661 715 661 741 q 643 670 661 688 q 598 652 625 652 q 555 670 574 652 q 536 715 536 688 q 554 758 536 739 q 598 777 572 777 z "},"":{"ha":583,"x_min":102,"x_max":656,"o":"m 581 582 l 625 591 l 574 420 q 517 184 545 321 q 502 90 502 108 q 519 69 502 69 q 553 83 529 69 q 634 146 595 108 l 656 119 q 557 34 576 47 q 474 -10 515 5 q 424 -20 448 -20 q 398 -11 407 -20 q 389 12 389 -3 q 389 24 389 20 q 394 40 390 28 l 421 132 q 282 12 363 62 q 191 -19 232 -19 q 131 9 153 -19 q 102 106 102 45 q 141 266 102 178 q 243 426 179 354 q 379 532 308 498 q 520 558 435 558 q 547 558 533 558 q 564 555 559 556 l 581 582 m 496 478 q 435 486 458 486 q 329 453 373 486 q 244 332 284 420 q 205 157 205 244 q 220 91 205 111 q 261 71 236 71 q 361 121 309 71 q 440 267 414 171 l 496 478 m 505 870 q 588 835 553 870 q 623 751 623 800 q 588 668 623 703 q 505 633 553 633 q 421 667 456 633 q 386 751 386 702 q 420 835 386 800 q 458 861 438 852 q 505 870 479 870 m 504 823 q 454 802 475 823 q 433 751 433 781 q 454 701 433 722 q 504 680 475 680 q 554 701 533 680 q 575 751 575 722 q 554 801 575 780 q 504 823 533 823 z "},"":{"ha":750,"x_min":104,"x_max":812,"o":"m 593 525 q 720 572 654 572 q 788 548 764 572 q 812 481 812 524 q 789 404 812 444 q 712 326 767 365 q 636 282 685 307 q 519 225 587 256 q 513 155 513 189 q 528 88 513 108 q 568 68 543 68 q 750 159 634 68 l 772 130 q 500 -18 627 -18 q 428 16 452 -18 q 403 126 403 50 q 273 10 349 59 q 189 -19 227 -19 q 132 8 153 -19 q 104 106 104 45 q 150 287 104 191 q 258 449 195 382 q 394 543 321 516 q 511 558 435 558 q 551 555 530 558 l 568 582 l 613 591 l 593 525 m 527 269 q 677 371 620 309 q 714 454 714 412 q 699 498 714 481 q 663 515 684 515 q 621 498 640 515 q 570 423 591 474 q 527 269 541 345 m 484 478 q 422 486 446 486 q 325 453 368 486 q 244 333 282 420 q 216 245 226 290 q 207 157 207 201 q 221 90 207 110 q 260 71 236 71 q 351 119 302 71 q 428 267 401 168 l 484 478 z "},"":{"ha":472,"x_min":110,"x_max":560,"o":"m 490 147 l 505 108 q 232 -19 343 -19 q 146 23 173 -19 q 119 130 119 65 q 176 349 119 236 q 315 524 233 463 q 458 570 378 570 q 534 552 509 570 q 560 505 560 533 q 546 471 560 484 q 509 458 532 458 q 446 480 484 458 q 383 503 408 503 q 317 472 351 503 q 254 355 285 444 q 232 269 239 311 q 224 181 224 227 q 250 81 224 117 q 271 61 259 68 q 301 54 283 54 q 490 147 381 54 m 254 13 l 298 13 l 256 -64 q 312 -89 294 -68 q 330 -136 330 -109 q 273 -232 330 -183 q 110 -298 216 -280 l 123 -257 q 223 -212 185 -245 q 250 -161 250 -189 q 233 -124 250 -139 q 191 -110 216 -110 l 180 -111 l 254 13 z "},"":{"ha":472,"x_min":112,"x_max":536,"o":"m 473 170 l 496 140 q 211 -18 330 -18 q 138 15 163 -18 q 112 119 112 48 q 200 408 112 264 q 437 572 299 572 q 510 548 484 572 q 536 481 536 524 q 506 396 536 439 q 396 306 475 353 q 336 275 376 294 q 228 225 296 256 q 222 155 222 189 q 237 88 222 107 q 281 69 252 69 q 342 85 311 69 q 473 170 387 104 m 236 269 q 400 374 345 317 q 428 413 418 393 q 437 452 437 432 q 422 498 437 480 q 382 515 408 515 q 334 496 357 515 q 280 420 302 472 q 236 269 250 349 m 294 849 l 408 849 l 482 652 l 441 652 l 294 849 z "},"":{"ha":472,"x_min":112,"x_max":612,"o":"m 473 170 l 496 140 q 211 -18 330 -18 q 138 15 163 -18 q 112 119 112 48 q 200 408 112 264 q 437 572 299 572 q 510 548 484 572 q 536 481 536 524 q 506 396 536 439 q 396 306 475 353 q 336 275 376 294 q 228 225 296 256 q 222 155 222 189 q 237 88 222 107 q 281 69 252 69 q 342 85 311 69 q 473 170 387 104 m 236 269 q 400 374 345 317 q 428 413 418 393 q 437 452 437 432 q 422 498 437 480 q 382 515 408 515 q 334 496 357 515 q 280 420 302 472 q 236 269 250 349 m 484 850 l 612 850 l 382 653 l 342 653 l 484 850 z "},"":{"ha":472,"x_min":112,"x_max":578,"o":"m 473 170 l 496 140 q 211 -18 330 -18 q 138 15 163 -18 q 112 119 112 48 q 200 408 112 264 q 437 572 299 572 q 510 548 484 572 q 536 481 536 524 q 506 396 536 439 q 396 306 475 353 q 336 275 376 294 q 228 225 296 256 q 222 155 222 189 q 237 88 222 107 q 281 69 252 69 q 342 85 311 69 q 473 170 387 104 m 236 269 q 400 374 345 317 q 428 413 418 393 q 437 452 437 432 q 422 498 437 480 q 382 515 408 515 q 334 496 357 515 q 280 420 302 472 q 236 269 250 349 m 427 850 l 529 850 l 578 653 l 540 653 l 469 777 l 288 653 l 244 653 l 427 850 z "},"":{"ha":472,"x_min":112,"x_max":606,"o":"m 473 170 l 496 140 q 211 -18 330 -18 q 138 15 163 -18 q 112 119 112 48 q 200 408 112 264 q 437 572 299 572 q 510 548 484 572 q 536 481 536 524 q 506 396 536 439 q 396 306 475 353 q 336 275 376 294 q 228 225 296 256 q 222 155 222 189 q 237 88 222 107 q 281 69 252 69 q 342 85 311 69 q 473 170 387 104 m 236 269 q 400 374 345 317 q 428 413 418 393 q 437 452 437 432 q 422 498 437 480 q 382 515 408 515 q 334 496 357 515 q 280 420 302 472 q 236 269 250 349 m 347 778 q 390 759 371 778 q 410 715 410 741 q 391 670 410 689 q 347 652 372 652 q 302 670 321 652 q 283 715 283 688 q 302 760 283 741 q 347 778 320 778 m 543 777 q 587 759 569 777 q 606 715 606 741 q 587 670 606 688 q 543 652 569 652 q 499 670 518 652 q 480 715 480 688 q 498 758 480 739 q 543 777 517 777 z "},"":{"ha":333,"x_min":110,"x_max":413,"o":"m 140 413 l 110 436 q 234 543 178 511 q 329 574 290 574 q 362 564 351 574 q 374 538 374 555 q 330 372 374 517 q 258 81 258 130 q 262 65 258 72 q 273 59 267 59 q 294 68 279 59 q 330 94 315 82 q 361 123 346 106 l 384 143 l 411 117 q 311 29 329 43 q 239 -12 273 1 q 205 -19 220 -19 q 167 -4 181 -19 q 153 37 153 11 q 180 189 153 87 q 254 452 229 375 q 259 469 258 464 q 260 479 260 473 q 248 493 260 493 q 216 482 234 493 q 189 460 208 477 q 140 413 170 443 m 225 849 l 338 849 l 413 652 l 372 652 l 225 849 z "},"":{"ha":333,"x_min":110,"x_max":543,"o":"m 140 413 l 110 436 q 234 543 178 511 q 329 574 290 574 q 362 564 351 574 q 374 538 374 555 q 330 372 374 517 q 258 81 258 130 q 262 65 258 72 q 273 59 267 59 q 294 68 279 59 q 330 94 315 82 q 361 123 346 106 l 384 143 l 411 117 q 311 29 329 43 q 239 -12 273 1 q 205 -19 220 -19 q 167 -4 181 -19 q 153 37 153 11 q 180 189 153 87 q 254 452 229 375 q 259 469 258 464 q 260 479 260 473 q 248 493 260 493 q 216 482 234 493 q 189 460 208 477 q 140 413 170 443 m 414 850 l 543 850 l 313 653 l 273 653 l 414 850 z "},"":{"ha":333,"x_min":110,"x_max":509,"o":"m 140 413 l 110 436 q 234 543 178 511 q 329 574 290 574 q 362 564 351 574 q 374 538 374 555 q 330 372 374 517 q 258 81 258 130 q 262 65 258 72 q 273 59 267 59 q 294 68 279 59 q 330 94 315 82 q 361 123 346 106 l 384 143 l 411 117 q 311 29 329 43 q 239 -12 273 1 q 205 -19 220 -19 q 167 -4 181 -19 q 153 37 153 11 q 180 189 153 87 q 254 452 229 375 q 259 469 258 464 q 260 479 260 473 q 248 493 260 493 q 216 482 234 493 q 189 460 208 477 q 140 413 170 443 m 357 850 l 460 850 l 509 653 l 471 653 l 400 777 l 218 653 l 175 653 l 357 850 z "},"":{"ha":333,"x_min":110,"x_max":536,"o":"m 140 413 l 110 436 q 234 543 178 511 q 329 574 290 574 q 362 564 351 574 q 374 538 374 555 q 330 372 374 517 q 258 81 258 130 q 262 65 258 72 q 273 59 267 59 q 294 68 279 59 q 330 94 315 82 q 361 123 346 106 l 384 143 l 411 117 q 311 29 329 43 q 239 -12 273 1 q 205 -19 220 -19 q 167 -4 181 -19 q 153 37 153 11 q 180 189 153 87 q 254 452 229 375 q 259 469 258 464 q 260 479 260 473 q 248 493 260 493 q 216 482 234 493 q 189 460 208 477 q 140 413 170 443 m 277 778 q 321 759 302 778 q 340 715 340 741 q 322 670 340 689 q 277 652 303 652 q 233 670 252 652 q 214 715 214 688 q 233 760 214 741 q 277 778 251 778 m 473 777 q 518 759 500 777 q 536 715 536 741 q 518 670 536 688 q 473 652 500 652 q 430 670 449 652 q 411 715 411 688 q 429 758 411 739 q 473 777 448 777 z "},"":{"ha":555,"x_min":117,"x_max":659,"o":"m 335 958 l 379 958 q 476 812 421 899 l 652 838 l 659 802 l 492 778 q 580 581 547 692 q 614 379 614 469 q 500 98 614 226 q 279 -20 397 -20 q 163 29 209 -20 q 117 155 117 79 q 166 359 117 258 q 284 511 216 460 q 420 562 353 562 q 476 543 446 562 q 466 592 471 566 q 452 645 460 618 l 414 766 l 205 734 l 199 772 l 401 802 l 335 958 m 398 519 q 326 489 362 519 q 261 378 290 459 q 232 215 232 296 q 264 72 232 124 q 328 33 289 33 q 399 63 362 33 q 466 172 436 94 q 488 249 480 210 q 495 328 495 287 q 471 465 495 410 q 398 519 447 519 z "},"":{"ha":639,"x_min":115,"x_max":729,"o":"m 138 412 l 115 435 q 254 545 202 518 q 342 572 306 572 q 364 566 356 572 q 372 552 372 560 q 371 540 372 546 q 369 530 370 534 l 338 394 q 512 537 408 470 q 604 572 567 572 q 645 555 630 572 q 660 506 660 538 q 654 458 660 486 q 597 267 644 416 q 553 83 553 126 q 557 63 553 70 q 569 56 562 56 q 631 94 589 56 q 667 125 639 101 q 690 144 681 136 l 707 119 q 578 8 646 51 q 539 -13 555 -6 q 507 -19 522 -19 q 468 0 482 -19 q 453 60 453 18 q 528 361 453 119 q 551 460 551 449 q 526 481 551 481 q 456 453 500 481 q 350 354 393 411 q 304 237 324 318 l 250 1 l 149 1 q 175 99 162 50 q 198 195 187 147 l 258 453 l 262 475 q 248 494 262 494 q 217 479 239 494 q 138 412 176 452 m 690 805 l 729 805 q 673 709 711 742 q 595 676 635 676 q 561 680 575 676 q 536 688 547 683 q 511 700 520 696 l 463 721 q 433 725 449 725 q 403 715 416 725 q 375 676 391 705 l 338 676 q 389 774 354 744 q 463 805 423 805 q 551 782 493 805 q 633 759 610 759 q 670 772 654 759 q 690 805 686 785 z "},"":{"ha":555,"x_min":118,"x_max":609,"o":"m 454 570 q 565 517 520 570 q 609 370 609 464 q 503 100 609 220 q 279 -20 397 -20 q 163 28 208 -20 q 118 157 118 75 q 199 420 118 299 q 454 570 301 570 m 397 519 q 285 437 339 519 q 231 210 231 354 q 264 71 231 122 q 330 33 290 33 q 433 104 387 33 q 493 331 493 197 q 466 476 493 433 q 397 519 438 519 m 336 849 l 450 849 l 524 652 l 484 652 l 336 849 z "},"":{"ha":555,"x_min":118,"x_max":654,"o":"m 454 570 q 565 517 520 570 q 609 370 609 464 q 503 100 609 220 q 279 -20 397 -20 q 163 28 208 -20 q 118 157 118 75 q 199 420 118 299 q 454 570 301 570 m 397 519 q 285 437 339 519 q 231 210 231 354 q 264 71 231 122 q 330 33 290 33 q 433 104 387 33 q 493 331 493 197 q 466 476 493 433 q 397 519 438 519 m 526 850 l 654 850 l 425 653 l 385 653 l 526 850 z "},"":{"ha":555,"x_min":118,"x_max":621,"o":"m 454 570 q 565 517 520 570 q 609 370 609 464 q 503 100 609 220 q 279 -20 397 -20 q 163 28 208 -20 q 118 157 118 75 q 199 420 118 299 q 454 570 301 570 m 397 519 q 285 437 339 519 q 231 210 231 354 q 264 71 231 122 q 330 33 290 33 q 433 104 387 33 q 493 331 493 197 q 466 476 493 433 q 397 519 438 519 m 469 850 l 571 850 l 621 653 l 582 653 l 511 777 l 330 653 l 286 653 l 469 850 z "},"":{"ha":555,"x_min":118,"x_max":688,"o":"m 454 570 q 565 517 520 570 q 609 370 609 464 q 503 100 609 220 q 279 -20 397 -20 q 163 28 208 -20 q 118 157 118 75 q 199 420 118 299 q 454 570 301 570 m 397 519 q 285 437 339 519 q 231 210 231 354 q 264 71 231 122 q 330 33 290 33 q 433 104 387 33 q 493 331 493 197 q 466 476 493 433 q 397 519 438 519 m 650 805 l 688 805 q 632 709 670 742 q 554 676 595 676 q 520 680 534 676 q 495 688 507 683 q 471 700 479 696 l 422 721 q 393 725 408 725 q 362 715 375 725 q 334 676 350 705 l 297 676 q 348 774 313 744 q 422 805 382 805 q 511 782 452 805 q 592 759 569 759 q 629 772 613 759 q 650 805 646 785 z "},"":{"ha":555,"x_min":118,"x_max":648,"o":"m 454 570 q 565 517 520 570 q 609 370 609 464 q 503 100 609 220 q 279 -20 397 -20 q 163 28 208 -20 q 118 157 118 75 q 199 420 118 299 q 454 570 301 570 m 397 519 q 285 437 339 519 q 231 210 231 354 q 264 71 231 122 q 330 33 290 33 q 433 104 387 33 q 493 331 493 197 q 466 476 493 433 q 397 519 438 519 m 389 778 q 433 759 414 778 q 452 715 452 741 q 434 670 452 689 q 389 652 415 652 q 345 670 364 652 q 326 715 326 688 q 345 760 326 741 q 389 778 363 778 m 585 777 q 630 759 612 777 q 648 715 648 741 q 630 670 648 688 q 585 652 612 652 q 542 670 561 652 q 523 715 523 688 q 541 758 523 739 q 585 777 559 777 z "},"":{"ha":762,"x_min":205,"x_max":805,"o":"m 505 654 q 548 636 530 654 q 566 593 566 618 q 548 551 566 569 q 505 533 530 533 q 463 551 480 533 q 445 593 445 568 q 463 636 445 618 q 505 654 481 654 m 805 436 l 805 359 l 205 359 l 205 436 l 805 436 m 505 262 q 548 245 530 262 q 566 202 566 227 q 548 160 566 178 q 505 142 530 142 q 463 159 480 142 q 445 202 445 177 q 463 245 445 227 q 505 262 480 262 z "},"":{"ha":611,"x_min":136,"x_max":653,"o":"m 601 507 q 627 446 618 479 q 636 372 636 413 q 531 101 636 222 q 308 -20 425 -20 q 208 12 250 -20 l 163 -45 l 136 -22 l 182 36 q 145 157 145 85 q 195 366 145 267 q 321 519 245 465 q 396 558 359 545 q 473 571 433 571 q 575 535 533 571 l 623 596 l 653 574 l 601 507 m 264 141 l 505 446 q 425 519 481 519 q 313 437 366 519 q 259 210 259 354 q 259 180 259 196 q 264 141 260 165 m 516 400 l 277 99 q 357 33 306 33 q 460 104 414 33 q 521 331 521 196 q 516 400 521 370 z "},"":{"ha":639,"x_min":114,"x_max":707,"o":"m 576 552 l 673 552 l 609 315 q 553 81 553 109 q 559 61 553 69 q 572 54 565 55 q 600 64 583 54 q 684 143 622 79 l 707 118 q 506 -24 570 -24 q 469 -7 485 -24 q 454 40 454 10 q 469 134 454 75 q 319 13 410 66 q 217 -22 260 -22 q 180 -6 193 -22 q 166 43 166 9 q 173 106 166 70 q 217 272 180 142 q 251 402 239 354 q 262 468 262 451 q 249 487 262 487 q 215 474 237 487 q 144 414 194 461 l 114 437 q 252 544 203 518 q 330 570 300 570 q 356 558 346 570 q 366 521 366 546 q 317 291 366 474 q 274 103 274 123 q 283 78 274 88 q 303 68 292 68 q 411 131 342 68 q 503 274 480 194 l 576 552 m 378 849 l 491 849 l 566 652 l 525 652 l 378 849 z "},"":{"ha":639,"x_min":114,"x_max":707,"o":"m 576 552 l 673 552 l 609 315 q 553 81 553 109 q 559 61 553 69 q 572 54 565 55 q 600 64 583 54 q 684 143 622 79 l 707 118 q 506 -24 570 -24 q 469 -7 485 -24 q 454 40 454 10 q 469 134 454 75 q 319 13 410 66 q 217 -22 260 -22 q 180 -6 193 -22 q 166 43 166 9 q 173 106 166 70 q 217 272 180 142 q 251 402 239 354 q 262 468 262 451 q 249 487 262 487 q 215 474 237 487 q 144 414 194 461 l 114 437 q 252 544 203 518 q 330 570 300 570 q 356 558 346 570 q 366 521 366 546 q 317 291 366 474 q 274 103 274 123 q 283 78 274 88 q 303 68 292 68 q 411 131 342 68 q 503 274 480 194 l 576 552 m 567 850 l 696 850 l 466 653 l 426 653 l 567 850 z "},"":{"ha":639,"x_min":114,"x_max":707,"o":"m 576 552 l 673 552 l 609 315 q 553 81 553 109 q 559 61 553 69 q 572 54 565 55 q 600 64 583 54 q 684 143 622 79 l 707 118 q 506 -24 570 -24 q 469 -7 485 -24 q 454 40 454 10 q 469 134 454 75 q 319 13 410 66 q 217 -22 260 -22 q 180 -6 193 -22 q 166 43 166 9 q 173 106 166 70 q 217 272 180 142 q 251 402 239 354 q 262 468 262 451 q 249 487 262 487 q 215 474 237 487 q 144 414 194 461 l 114 437 q 252 544 203 518 q 330 570 300 570 q 356 558 346 570 q 366 521 366 546 q 317 291 366 474 q 274 103 274 123 q 283 78 274 88 q 303 68 292 68 q 411 131 342 68 q 503 274 480 194 l 576 552 m 510 850 l 612 850 l 662 653 l 623 653 l 553 777 l 371 653 l 328 653 l 510 850 z "},"":{"ha":639,"x_min":114,"x_max":707,"o":"m 576 552 l 673 552 l 609 315 q 553 81 553 109 q 559 61 553 69 q 572 54 565 55 q 600 64 583 54 q 684 143 622 79 l 707 118 q 506 -24 570 -24 q 469 -7 485 -24 q 454 40 454 10 q 469 134 454 75 q 319 13 410 66 q 217 -22 260 -22 q 180 -6 193 -22 q 166 43 166 9 q 173 106 166 70 q 217 272 180 142 q 251 402 239 354 q 262 468 262 451 q 249 487 262 487 q 215 474 237 487 q 144 414 194 461 l 114 437 q 252 544 203 518 q 330 570 300 570 q 356 558 346 570 q 366 521 366 546 q 317 291 366 474 q 274 103 274 123 q 283 78 274 88 q 303 68 292 68 q 411 131 342 68 q 503 274 480 194 l 576 552 m 431 778 q 474 759 455 778 q 494 715 494 741 q 475 670 494 689 q 431 652 456 652 q 387 670 406 652 q 368 715 368 688 q 386 760 368 741 q 431 778 404 778 m 627 777 q 671 759 653 777 q 690 715 690 741 q 671 670 690 688 q 627 652 653 652 q 583 670 602 652 q 564 715 564 688 q 583 758 564 739 q 627 777 601 777 z "},"":{"ha":555,"x_min":-41,"x_max":654,"o":"m 116 433 l 94 465 l 144 498 q 248 563 216 547 q 279 571 264 571 q 306 555 292 571 q 406 352 364 480 q 447 104 447 224 l 446 56 q 560 391 560 268 q 548 463 560 418 q 536 528 536 507 q 549 560 536 547 q 581 573 562 573 q 618 554 603 573 q 633 503 633 536 q 624 404 633 457 q 593 284 614 351 q 468 4 554 154 q 312 -219 382 -145 q 174 -324 241 -292 q 49 -355 108 -355 q -19 -338 3 -355 q -41 -299 -41 -321 q -24 -264 -41 -279 q 24 -250 -6 -250 q 89 -259 47 -250 q 145 -268 131 -268 q 233 -233 186 -268 q 332 -120 296 -186 q 360 -54 351 -87 q 370 13 370 -22 q 342 240 370 109 q 264 441 315 371 q 211 477 240 477 q 116 433 179 477 m 526 850 l 654 850 l 425 653 l 385 653 l 526 850 z "},"":{"ha":444,"x_min":75,"x_max":507,"o":"m 308 675 l 416 716 l 367 526 l 507 526 l 496 478 l 356 478 l 296 251 q 269 109 269 148 q 276 82 269 90 q 298 74 284 74 q 362 99 318 74 q 471 174 418 131 l 496 143 q 297 6 348 31 q 217 -19 246 -19 q 177 -1 193 -19 q 163 59 163 18 q 169 121 163 84 q 189 208 175 157 l 258 478 l 149 478 l 161 526 l 270 526 l 308 675 m 85 -418 l 75 -383 q 151 -308 123 -346 q 169 -268 169 -283 q 156 -228 169 -254 q 142 -186 142 -202 q 157 -151 142 -166 q 192 -136 172 -136 q 230 -154 214 -136 q 246 -197 246 -172 q 230 -263 246 -226 q 180 -336 214 -301 q 85 -418 136 -385 z "},"":{"ha":555,"x_min":-41,"x_max":648,"o":"m 116 433 l 94 465 l 144 498 q 248 563 216 547 q 279 571 264 571 q 306 555 292 571 q 406 352 364 480 q 447 104 447 224 l 446 56 q 560 391 560 268 q 548 463 560 418 q 536 528 536 507 q 549 560 536 547 q 581 573 562 573 q 618 554 603 573 q 633 503 633 536 q 624 404 633 457 q 593 284 614 351 q 468 4 554 154 q 312 -219 382 -145 q 174 -324 241 -292 q 49 -355 108 -355 q -19 -338 3 -355 q -41 -299 -41 -321 q -24 -264 -41 -279 q 24 -250 -6 -250 q 89 -259 47 -250 q 145 -268 131 -268 q 233 -233 186 -268 q 332 -120 296 -186 q 360 -54 351 -87 q 370 13 370 -22 q 342 240 370 109 q 264 441 315 371 q 211 477 240 477 q 116 433 179 477 m 389 778 q 432 759 413 778 q 452 715 452 741 q 433 670 452 689 q 389 652 414 652 q 345 670 363 652 q 326 715 326 688 q 344 760 326 741 q 389 778 362 778 m 585 777 q 629 759 611 777 q 648 715 648 741 q 629 670 648 688 q 585 652 611 652 q 541 670 560 652 q 522 715 522 688 q 541 758 522 739 q 585 777 559 777 z "},"":{"ha":583,"x_min":370,"x_max":715,"o":"m 715 838 q 626 731 690 777 q 512 686 563 686 q 406 724 442 686 q 370 838 370 762 l 410 838 q 516 748 432 748 q 677 838 613 748 l 715 838 z "},"":{"ha":333,"x_min":110,"x_max":411,"o":"m 140 413 l 110 436 q 234 543 178 511 q 329 574 290 574 q 362 564 351 574 q 374 538 374 555 q 330 372 374 517 q 258 81 258 130 q 262 65 258 72 q 273 59 267 59 q 294 68 279 59 q 330 94 315 82 q 361 123 346 106 l 384 143 l 411 117 q 311 29 329 43 q 239 -12 273 1 q 205 -19 220 -19 q 167 -4 181 -19 q 153 37 153 11 q 180 189 153 87 q 254 452 229 375 q 259 469 258 464 q 260 479 260 473 q 248 493 260 493 q 216 482 234 493 q 189 460 208 477 q 140 413 170 443 z "},"":{"ha":416,"x_min":303,"x_max":540,"o":"m 422 870 q 505 835 471 870 q 540 751 540 800 q 505 668 540 703 q 422 633 471 633 q 338 667 374 633 q 303 751 303 702 q 338 835 303 800 q 376 861 355 852 q 422 870 396 870 m 421 823 q 371 802 393 823 q 350 751 350 781 q 371 701 350 722 q 421 680 392 680 q 471 701 450 680 q 492 751 492 722 q 471 801 492 780 q 421 823 450 823 z "},"":{"ha":472,"x_min":322,"x_max":654,"o":"m 322 851 l 363 851 l 430 728 l 615 851 l 654 851 l 475 654 l 372 654 l 322 851 z "},"":{"ha":83,"x_min":-99,"x_max":405,"o":"m -99 -5 l 1 166 l 248 618 q 351 812 306 724 l 405 803 q 365 736 399 793 q 326 669 337 689 q 288 601 307 635 l 70 204 q 13 97 43 156 q -41 -10 -13 47 q -70 -7 -52 -9 q -99 -5 -88 -5 z "},"":{"ha":694,"x_min":279,"x_max":450,"o":"m 289 -418 l 279 -383 q 355 -308 327 -346 q 372 -268 372 -283 q 359 -228 372 -254 q 346 -186 346 -202 q 361 -151 346 -166 q 395 -136 376 -136 q 433 -154 417 -136 q 450 -197 450 -172 q 433 -263 450 -226 q 384 -336 417 -301 q 289 -418 339 -385 z "},"":{"ha":463,"x_min":377,"x_max":503,"o":"m 440 778 q 484 759 465 778 q 503 715 503 741 q 485 670 503 689 q 440 652 466 652 q 396 670 415 652 q 377 715 377 688 q 395 760 377 741 q 440 778 414 778 z "},"":{"ha":367,"x_min":142,"x_max":488,"o":"m 470 536 l 459 494 l 397 494 l 368 378 l 296 378 l 325 494 q 249 493 288 494 q 168 492 210 493 q 142 503 142 492 q 196 581 142 520 q 464 814 303 702 l 488 814 l 448 680 l 408 536 l 470 536 m 335 538 q 355 615 347 583 q 383 710 364 647 q 210 538 288 635 l 335 538 z "}}}
